<?xml version="1.0" standalone="no"?>
<!DOCTYPE svg PUBLIC "-//W3C//DTD SVG 20010904//EN"
 "http://www.w3.org/TR/2001/REC-SVG-20010904/DTD/svg10.dtd">
<svg version="1.0" xmlns="http://www.w3.org/2000/svg"
 width="1024.000000pt" height="1024.000000pt" viewBox="0 0 1024.000000 1024.000000"
 preserveAspectRatio="xMidYMid meet">

<g transform="translate(0.000000,1024.000000) scale(0.100000,-0.100000)"
fill="#000000" stroke="none">
<path d="M0 5120 l0 -5120 5120 0 5120 0 0 5120 0 5120 -5120 0 -5120 0 0
-5120z m2945 3433 c4 -10 9 -58 12 -106 9 -140 22 -178 69 -203 26 -14 51 -19
74 -16 26 3 40 -1 54 -16 19 -22 13 -47 -9 -38 -7 2 -18 -1 -24 -7 -8 -8 -11
-6 -11 10 0 11 -7 24 -16 27 -8 3 -13 2 -9 -3 5 -9 -38 -45 -80 -66 -28 -15
-44 -68 -44 -152 -1 -96 -13 -125 -49 -121 -25 3 -27 6 -29 58 -3 94 -11 164
-22 191 -12 33 -80 62 -138 60 -44 -1 -51 7 -37 43 9 25 26 19 20 -6 -3 -13
-3 -17 0 -10 3 6 10 10 15 7 5 -4 6 1 3 9 -5 13 2 16 34 16 45 0 88 28 103 68
5 13 12 76 14 139 2 63 7 118 10 123 10 17 52 11 60 -7z m2220 -102 c0 -1 42
-3 94 -6 52 -2 99 -9 104 -14 5 -5 25 -7 43 -4 19 3 40 1 48 -6 7 -6 22 -10
32 -9 28 3 117 -13 131 -24 7 -6 30 -11 52 -12 24 -1 53 -11 71 -24 16 -13 30
-18 30 -12 0 15 26 12 40 -5 7 -8 23 -15 35 -15 13 0 61 -16 107 -35 46 -20
93 -37 105 -39 11 -3 32 -11 45 -19 12 -8 40 -20 60 -27 21 -6 44 -21 52 -32
10 -13 21 -18 32 -14 10 4 25 -2 39 -16 39 -38 55 -49 64 -43 5 3 12 1 16 -5
3 -6 22 -17 41 -25 23 -9 33 -19 28 -26 -4 -8 -3 -9 5 -5 6 4 17 1 25 -6 7 -7
40 -31 72 -53 32 -22 73 -55 90 -72 18 -18 36 -33 41 -33 5 0 35 -27 68 -60
33 -33 63 -60 68 -60 17 0 235 -233 230 -246 -3 -7 5 -14 19 -16 13 -2 23 -10
23 -18 0 -8 10 -23 23 -34 13 -10 21 -25 18 -33 -3 -8 -2 -12 3 -9 9 6 69 -75
100 -132 8 -15 21 -33 28 -41 12 -11 65 -107 68 -121 1 -3 11 -21 23 -40 12
-19 25 -46 29 -60 3 -13 19 -45 35 -69 15 -25 28 -54 28 -65 0 -11 6 -27 14
-35 8 -9 19 -32 24 -51 6 -19 22 -65 36 -102 14 -37 23 -74 20 -83 -4 -8 -1
-15 5 -15 6 0 14 -18 17 -40 4 -22 11 -40 16 -40 6 0 8 -7 5 -15 -4 -8 2 -39
12 -68 21 -59 40 -147 47 -205 2 -21 7 -68 11 -107 12 -119 5 -482 -11 -565
-8 -41 -17 -93 -21 -115 -4 -22 -11 -50 -17 -62 -6 -12 -8 -29 -5 -37 3 -8 2
-18 -3 -21 -6 -4 -10 -19 -10 -36 0 -16 -4 -37 -9 -47 -5 -9 -17 -44 -26 -77
-9 -33 -24 -76 -33 -95 -8 -19 -14 -38 -14 -43 4 -18 -114 -261 -159 -330 -22
-32 -39 -61 -39 -65 0 -4 -17 -32 -39 -63 -21 -30 -46 -71 -55 -90 -9 -19 -31
-51 -50 -71 -19 -21 -43 -51 -52 -68 -10 -16 -27 -33 -37 -36 -10 -3 -25 -21
-33 -40 -8 -19 -22 -38 -32 -41 -9 -4 -28 -20 -42 -37 -14 -16 -31 -35 -38
-40 -7 -6 -30 -28 -52 -48 -21 -21 -40 -38 -43 -38 -2 0 -28 -22 -58 -50 -30
-27 -66 -55 -81 -61 -15 -6 -30 -20 -33 -30 -4 -10 -11 -19 -17 -19 -6 0 -49
-29 -96 -65 -46 -36 -91 -65 -98 -65 -8 0 -14 -4 -14 -8 0 -9 -57 -44 -64 -40
-2 2 -15 -6 -28 -17 -21 -19 -86 -52 -183 -95 -22 -10 -62 -28 -90 -41 -87
-39 -107 -47 -225 -79 -63 -17 -133 -38 -156 -46 -22 -9 -44 -14 -50 -13 -5 1
-16 -1 -24 -4 -8 -3 -67 -17 -130 -31 -63 -14 -131 -30 -150 -36 -65 -20 -164
-31 -300 -34 -136 -4 -163 -1 -139 15 11 7 10 9 -3 9 -10 0 -18 -4 -18 -10 0
-5 -9 -10 -20 -10 -11 0 -20 5 -20 10 0 6 4 10 10 10 5 0 7 7 3 15 -3 9 -13
15 -22 13 -9 -1 -22 1 -29 5 -6 5 -36 12 -65 18 -92 16 -110 20 -202 41 -227
50 -343 83 -431 124 -33 15 -64 28 -70 29 -6 2 -29 15 -52 29 -23 14 -46 26
-52 26 -16 0 -90 39 -90 48 0 10 -50 32 -71 32 -10 0 -24 8 -31 19 -7 10 -38
31 -68 46 -61 31 -113 70 -177 132 -25 25 -49 40 -57 37 -9 -3 -22 6 -33 23
-24 37 -50 63 -57 56 -9 -10 -44 26 -50 53 -4 13 -13 24 -21 24 -21 0 -57 38
-49 52 4 6 3 8 -3 5 -14 -9 -63 30 -63 49 0 8 -6 14 -14 14 -8 0 -24 14 -37
31 -13 17 -41 49 -61 71 -20 21 -50 60 -67 86 -16 26 -46 65 -66 87 -19 22
-35 47 -35 56 0 9 -6 19 -14 22 -13 5 -63 95 -149 272 -22 44 -40 85 -41 90
-1 6 -7 19 -13 30 -6 11 -15 38 -19 60 -4 22 -18 64 -31 94 -14 29 -26 63 -29
75 -2 11 -8 45 -14 74 -5 28 -13 60 -19 70 -5 9 -14 57 -20 106 -7 50 -14 93
-17 97 -4 7 -17 171 -15 202 1 29 0 50 -4 102 -5 65 -5 66 0 160 13 211 21
282 37 302 5 6 11 40 14 75 3 34 9 65 14 68 4 3 11 28 15 55 4 28 13 56 19 64
8 11 8 13 0 8 -10 -6 22 99 46 148 5 11 14 39 19 63 5 24 17 52 26 62 9 10 17
29 18 42 1 13 10 33 20 42 10 10 21 31 24 47 3 17 19 39 35 50 16 12 27 27 24
34 -3 8 6 26 20 40 14 15 23 34 20 41 -3 8 3 20 14 26 11 7 20 16 20 19 0 6
33 62 85 145 20 31 62 83 122 152 18 20 33 41 33 45 0 11 68 77 80 77 5 0 10
6 10 12 0 13 129 148 141 148 3 0 29 23 58 50 29 28 56 50 61 50 5 0 21 12 37
26 15 14 51 44 78 65 47 37 51 38 64 22 12 -17 13 -16 7 4 -6 18 0 26 35 45
43 24 50 28 111 66 21 13 47 24 58 25 12 1 26 9 31 19 5 10 21 18 34 18 14 0
29 8 35 21 8 13 19 19 35 17 13 -1 32 6 44 16 11 10 27 16 35 13 9 -4 18 -2
21 3 8 13 94 50 115 50 10 0 23 7 30 15 7 9 18 14 25 12 6 -3 19 1 29 9 11 7
22 11 27 9 4 -3 10 -1 14 5 3 5 12 10 20 10 8 0 26 5 42 12 31 12 45 16 83 22
30 4 119 26 140 33 8 3 30 5 48 4 17 -2 32 2 32 7 0 6 19 9 43 8 23 -2 53 1
67 6 14 6 54 11 88 13 35 2 66 6 68 8 4 4 219 2 219 -2z m2298 -45 c10 -11 15
-46 16 -137 1 -131 20 -216 53 -245 13 -13 41 -17 115 -18 l98 -1 3 -33 c3
-31 2 -33 -30 -30 -19 1 -39 -2 -46 -6 -6 -4 -20 -2 -30 3 -11 6 -23 7 -28 2
-5 -4 -28 -14 -51 -21 -68 -21 -73 -32 -79 -166 -3 -66 -7 -125 -9 -131 -6
-18 -50 -16 -64 1 -12 14 -13 30 -12 172 1 59 -1 64 -34 93 -20 17 -43 31 -51
31 -8 0 -12 5 -9 10 6 9 -17 15 -40 10 -5 -1 -31 -3 -58 -4 -52 -3 -82 18 -75
51 3 19 18 22 145 27 55 2 65 5 88 31 14 17 25 37 26 45 0 8 2 26 4 40 2 14 4
78 5 143 2 88 6 121 17 132 18 19 28 19 46 1z m-5047 -889 c4 -4 -2 -7 -14 -7
-26 0 -40 -20 -15 -21 10 -1 24 -1 31 0 10 2 11 -3 4 -16 -7 -13 -5 -31 8 -63
16 -41 21 -45 54 -46 41 -1 66 -18 66 -45 0 -19 -10 -28 -37 -34 -34 -6 -71
-24 -79 -37 -8 -13 -9 -20 -12 -100 -1 -26 -9 -53 -17 -62 -8 -8 -15 -19 -15
-25 0 -6 -7 -11 -15 -11 -10 0 -15 11 -16 33 -1 17 -3 48 -5 67 -1 19 -3 52
-3 73 0 20 -5 37 -11 37 -6 0 -28 11 -50 25 -32 20 -44 23 -65 15 -15 -6 -31
-8 -36 -4 -15 9 -10 51 7 58 24 9 54 7 54 -4 0 -6 11 -5 28 3 15 7 34 12 42
10 23 -5 51 84 37 115 -8 18 -6 25 8 36 20 14 39 15 51 3z m5405 -327 c41 -23
6 -110 -45 -110 -53 0 -73 56 -34 97 23 25 48 29 79 13z m199 -1788 c-1 -15
-1 -29 0 -32 1 -3 3 -45 5 -95 2 -108 26 -197 57 -217 22 -15 82 -30 123 -32
32 -2 31 -34 -2 -47 -15 -6 -37 -16 -49 -21 -11 -5 -27 -9 -35 -8 -30 5 -40
-1 -66 -41 -25 -38 -27 -49 -30 -172 -4 -118 -6 -132 -25 -149 -44 -38 -48
-28 -53 146 -2 80 -9 154 -15 165 -11 22 -96 76 -120 76 -19 0 -26 45 -8 56 7
5 27 9 44 9 20 0 43 11 67 33 l37 33 -2 157 c-1 144 0 159 18 171 27 20 56 3
54 -32z m-5438 -907 c4 -16 10 -74 13 -128 6 -107 26 -171 58 -189 12 -6 40
-13 62 -15 68 -7 85 -13 85 -31 0 -13 -16 -22 -62 -35 -35 -10 -68 -20 -74
-22 -7 -2 -24 -19 -38 -38 -23 -30 -26 -45 -32 -148 -4 -89 -9 -117 -21 -126
-20 -15 -24 -16 -41 -4 -15 9 -24 61 -10 61 5 0 5 7 0 18 -5 9 -10 55 -11 102
-1 47 -7 91 -14 99 -27 32 -88 61 -130 61 -24 0 -48 5 -55 12 -9 9 -12 9 -12
0 0 -18 -35 -15 -51 4 -23 28 15 45 98 43 65 -2 76 1 108 25 58 45 60 51 55
221 -3 99 6 127 38 123 19 -2 28 -11 34 -33z m4920 -327 c9 -7 18 -35 22 -62
8 -63 16 -72 72 -79 25 -2 50 -9 56 -15 15 -15 0 -52 -21 -52 -10 0 -38 -7
-64 -16 -35 -12 -47 -21 -49 -37 0 -12 -2 -28 -2 -36 -1 -8 -7 -16 -13 -18
-10 -4 -10 -10 -2 -24 8 -15 6 -21 -6 -26 -28 -10 -53 27 -58 86 -5 58 -16 70
-62 72 -63 2 -70 5 -73 22 -2 10 2 24 8 32 17 20 44 20 36 0 -3 -8 -2 -15 3
-15 5 0 11 9 14 20 3 13 17 22 36 26 32 7 48 37 42 77 -1 9 3 17 9 17 6 0 8 5
4 11 -3 6 0 15 7 20 18 12 22 11 41 -3z m-3885 -765 c-3 -5 67 -8 155 -7 172
1 188 -3 188 -51 0 -17 -8 -25 -27 -30 -43 -12 -861 -16 -868 -5 -4 6 -11 10
-16 10 -6 0 -8 -4 -5 -9 4 -6 -247 -7 -329 -1 -5 0 -31 -2 -57 -6 -33 -4 -53
-3 -63 6 -10 8 -19 9 -27 2 -14 -11 -167 -10 -185 1 -6 4 -14 4 -17 -1 -2 -4
-21 -6 -40 -4 -27 3 -36 9 -36 23 0 11 -5 16 -13 13 -9 -3 -13 3 -12 18 1 15
8 23 21 23 10 1 25 4 32 9 7 4 25 5 40 1 39 -11 72 -12 72 -3 0 12 28 10 50
-4 14 -9 25 -10 38 -2 19 11 85 11 121 0 13 -5 21 -4 18 1 -6 10 112 8 156 -3
17 -4 27 -2 27 5 0 15 25 14 50 -1 15 -9 23 -10 28 -2 8 12 415 14 427 2 4 -4
15 -3 24 1 9 5 62 8 119 7 56 -1 108 1 115 6 15 10 19 10 14 1z m2863 -12 c30
0 71 1 90 1 19 0 46 0 60 -1 14 -1 120 -1 235 0 116 0 260 0 320 -2 61 -1 135
-1 165 0 52 1 476 -5 548 -8 28 -1 32 -4 32 -30 0 -17 -6 -33 -12 -38 -20 -12
-82 -16 -233 -14 -49 1 -97 1 -105 0 -8 -1 -28 2 -44 6 -17 5 -27 4 -23 -1 7
-12 -136 -11 -145 1 -5 7 -8 7 -8 0 0 -10 -737 -11 -800 -1 -16 2 -33 0 -36
-5 -3 -6 -15 -7 -26 -3 -16 5 -174 12 -294 14 -12 0 -29 11 -37 24 -33 50 20
65 203 59 30 -1 80 -2 110 -2z m-4203 -83 c-3 -8 -6 -5 -6 6 -1 11 2 17 5 13
3 -3 4 -12 1 -19z m2349 -11 c11 -11 46 -8 39 3 -3 6 3 10 14 10 12 0 21 -4
21 -10 0 -5 6 -7 14 -4 19 7 26 -29 10 -51 -8 -10 -14 -16 -14 -13 0 3 -22 -2
-50 -13 -27 -10 -50 -16 -50 -13 0 4 -7 1 -15 -6 -8 -6 -18 -9 -22 -7 -5 3
-33 -3 -63 -14 -30 -10 -65 -19 -77 -19 -21 0 -57 -29 -59 -48 -2 -14 -23 -57
-23 -48 -1 5 -15 -10 -32 -34 -30 -42 -32 -43 -46 -24 -15 18 -15 18 -9 -3 4
-13 2 -25 -6 -30 -12 -7 -17 -9 -37 -12 -4 0 -6 -12 -3 -26 3 -20 1 -24 -12
-19 -9 3 -16 12 -16 20 0 19 -29 18 -36 -1 -4 -9 -19 -15 -35 -15 -16 0 -29
-5 -29 -11 0 -5 -4 -8 -10 -4 -5 3 -7 13 -4 23 3 9 -8 1 -26 -18 -24 -27 -30
-30 -25 -13 3 12 1 24 -5 28 -6 3 -10 -3 -10 -14 0 -13 -7 -21 -17 -21 -28 -1
-54 -25 -47 -44 5 -12 2 -15 -9 -10 -12 4 -14 1 -10 -15 5 -21 -11 -29 -22
-11 -11 18 -25 10 -25 -15 0 -14 -3 -25 -7 -25 -5 0 -16 -14 -26 -31 -14 -26
-20 -29 -32 -19 -13 10 -15 8 -15 -12 0 -24 -32 -68 -49 -68 -5 0 -12 -8 -15
-17 -10 -28 -32 -63 -48 -76 -25 -21 -68 -85 -68 -101 0 -9 -3 -16 -7 -16 -5
0 -17 -13 -27 -29 -12 -18 -26 -27 -35 -24 -12 4 -13 2 -3 -4 19 -14 -14 -76
-37 -70 -13 3 -17 -2 -16 -22 0 -16 -5 -25 -13 -23 -10 2 -10 -2 -2 -18 9 -16
8 -19 -6 -13 -14 5 -16 2 -10 -20 3 -15 2 -27 -2 -27 -17 0 -53 -38 -42 -45 5
-3 10 -11 10 -17 0 -6 -8 -2 -17 8 -10 11 -27 18 -38 17 -20 -4 -20 -3 -1 11
10 9 23 13 28 10 23 -15 40 34 29 85 -1 2 -14 -14 -30 -37 -33 -45 -60 -67
-43 -35 6 11 18 25 26 33 9 7 16 21 16 31 0 11 4 19 10 19 5 0 7 7 4 15 -9 23
13 18 30 -7 9 -12 16 -18 16 -12 0 6 -9 19 -19 28 -19 17 -17 20 45 123 35 58
64 110 64 115 0 6 6 8 14 5 9 -4 12 0 9 12 -2 10 1 24 9 32 7 8 26 33 42 57
16 23 33 42 37 42 5 0 9 7 9 15 0 8 4 15 8 15 4 0 15 12 24 28 9 15 25 37 35
48 39 47 63 79 63 86 0 4 7 8 16 8 9 0 14 6 11 13 -4 12 19 34 40 39 5 1 14 8
21 15 16 15 49 17 54 3 3 -10 90 28 96 42 2 4 9 8 16 8 7 0 21 9 30 19 10 10
25 18 34 17 9 -2 31 8 50 21 19 12 41 23 48 23 8 0 14 5 14 11 0 5 14 15 30
20 32 12 39 26 16 35 -19 7 -145 -35 -165 -55 -10 -10 -23 -15 -29 -13 -6 2
-35 -10 -64 -26 -29 -16 -59 -27 -65 -25 -7 3 -13 0 -13 -5 0 -5 -42 -31 -92
-57 -89 -45 -212 -126 -220 -143 -1 -4 -23 -23 -47 -42 -66 -51 -171 -156
-171 -170 0 -7 -7 -10 -15 -6 -8 3 -15 0 -15 -7 0 -7 -14 -25 -30 -41 -17 -16
-30 -33 -30 -37 0 -4 -9 -10 -19 -14 -11 -3 -23 -15 -26 -26 -6 -16 -13 -19
-38 -15 -27 5 -29 5 -9 -4 25 -11 30 -30 7 -30 -8 0 -14 -6 -12 -12 1 -7 -4
-12 -10 -11 -7 2 -13 -1 -13 -7 0 -5 -6 -7 -14 -4 -7 3 -16 -2 -20 -11 -3 -9
-2 -13 4 -10 6 3 10 4 10 1 0 -2 3 -12 7 -21 5 -14 2 -16 -17 -10 -20 6 -22 4
-17 -14 3 -13 1 -19 -5 -15 -6 4 -14 0 -19 -7 -7 -11 -9 -11 -9 3 0 9 5 20 10
23 6 3 10 11 10 16 0 6 -4 7 -10 4 -5 -3 -10 3 -10 14 0 12 -4 21 -10 21 -5 0
-10 -9 -10 -20 0 -11 -4 -20 -10 -20 -13 0 -13 10 3 43 13 30 37 36 37 11 0
-14 3 -14 15 -4 17 14 21 35 5 25 -5 -3 -19 0 -31 8 -12 9 -16 18 -10 21 5 4
12 2 16 -3 10 -17 35 0 35 24 0 34 10 55 26 55 8 0 14 6 14 13 0 8 18 33 39
56 22 24 42 50 46 59 5 13 8 14 14 3 11 -17 23 1 16 21 -4 9 9 25 34 42 22 16
43 36 46 46 5 16 11 21 37 30 3 1 32 26 65 56 54 51 83 69 67 42 -4 -7 -3 -8
4 -4 7 4 12 13 12 19 0 12 59 57 74 57 4 0 16 8 27 18 10 11 32 25 47 32 15 8
34 20 44 28 9 7 22 14 30 16 7 1 28 12 46 25 52 36 140 81 161 81 10 0 21 7
25 15 3 8 14 15 25 15 10 0 61 15 112 33 52 19 101 34 109 34 47 3 126 16 135
23 6 5 32 4 59 -1 27 -5 52 -7 54 -4 3 3 0 5 -6 5 -7 0 -12 4 -12 9 0 16 102
22 116 8z m1099 -23 c126 -18 204 -35 211 -46 3 -4 21 -8 40 -8 24 0 34 -4 34
-16 0 -8 4 -12 10 -9 9 5 55 -14 180 -73 86 -42 217 -118 238 -140 12 -12 22
-20 22 -17 0 10 59 -25 95 -57 20 -17 34 -37 31 -43 -3 -8 2 -11 15 -8 10 3
19 0 19 -6 0 -6 7 -11 16 -11 13 0 15 -6 9 -27 -5 -23 -4 -25 9 -14 20 17 57
-3 50 -27 -5 -13 -4 -14 4 -3 8 11 14 9 32 -9 16 -16 19 -24 10 -30 -9 -5 -9
-9 -1 -14 6 -4 11 -3 11 2 0 14 48 -9 55 -25 2 -7 -3 -13 -11 -13 -8 0 -12 -5
-8 -11 3 -6 15 -8 26 -6 14 4 22 0 25 -14 3 -10 10 -19 17 -19 6 0 24 -18 39
-40 16 -22 32 -40 36 -40 5 0 16 -11 25 -25 14 -22 15 -25 1 -25 -8 0 -15 9
-15 20 0 14 -5 18 -17 13 -11 -4 -12 -8 -5 -11 7 -2 12 -12 12 -23 0 -12 7
-19 20 -20 35 -2 38 -4 59 -28 25 -29 27 -41 5 -41 -10 0 -14 6 -11 14 3 8 -4
21 -18 30 -27 18 -39 20 -30 7 3 -5 -2 -17 -11 -25 -14 -15 -14 -16 0 -16 9 0
16 7 16 16 0 14 2 14 16 3 15 -12 14 -15 -6 -31 -12 -10 -17 -18 -11 -18 7 0
10 -4 6 -10 -3 -5 7 -3 22 5 24 13 31 12 57 -3 30 -18 46 -42 27 -42 -6 0 -11
6 -11 13 0 8 -12 19 -26 26 -23 10 -26 10 -20 -4 5 -13 1 -15 -15 -10 -20 7
-21 7 -2 -13 15 -16 20 -17 30 -5 6 8 13 10 16 6 8 -13 -5 -29 -30 -35 -16 -4
-23 0 -28 16 -4 13 -8 16 -12 9 -6 -17 -27 -17 -20 0 3 7 -4 19 -14 26 -11 6
-17 16 -14 21 3 5 -1 7 -9 4 -11 -4 -13 0 -9 17 5 16 3 20 -6 15 -16 -10 -55
30 -45 46 4 6 3 8 -3 5 -6 -4 -21 2 -33 13 -13 11 -27 20 -32 20 -5 0 -7 4 -3
10 5 8 -50 67 -159 168 -25 24 -44 47 -41 53 4 5 -3 9 -14 9 -12 0 -21 5 -21
10 0 6 -6 10 -13 10 -6 0 -25 14 -41 31 -16 17 -46 41 -65 54 -20 12 -49 34
-64 49 -32 29 -44 31 -71 11 -18 -14 -17 -15 10 -27 16 -6 37 -20 47 -30 17
-17 17 -18 -3 -18 -31 0 -24 -17 10 -23 21 -5 28 -11 24 -22 -4 -11 0 -15 16
-15 17 0 20 -4 15 -21 -5 -14 0 -26 14 -38 12 -10 21 -23 21 -30 0 -6 5 -11
11 -11 6 0 9 -6 6 -14 -3 -8 1 -17 9 -20 8 -3 14 -10 14 -16 0 -6 17 -37 39
-68 62 -92 103 -171 98 -187 -4 -8 -1 -12 6 -9 13 5 80 -133 71 -147 -8 -14
-26 1 -20 17 6 16 -19 19 -29 4 -4 -6 -11 -8 -16 -5 -5 4 -9 2 -9 -4 0 -5 5
-13 10 -16 6 -3 10 -1 10 4 0 16 17 13 23 -3 4 -9 -2 -14 -18 -14 -20 0 -40
22 -35 37 1 2 -4 8 -12 12 -10 7 -10 9 0 9 7 0 10 5 7 10 -4 6 -11 7 -17 4 -7
-5 -9 -1 -5 9 4 12 1 17 -10 17 -13 0 -13 3 -3 15 11 13 10 14 -5 8 -14 -5
-17 -3 -13 8 4 9 -2 20 -13 27 -10 7 -19 19 -19 27 0 8 -5 15 -11 15 -8 0 -8
4 0 14 10 12 8 13 -9 9 -15 -4 -19 -2 -15 10 4 8 -1 17 -10 21 -13 4 -16 14
-11 34 3 15 3 21 0 15 -9 -21 -21 -15 -35 18 -7 18 -28 48 -46 68 -18 20 -33
40 -33 45 0 4 -13 25 -28 45 -15 20 -28 45 -28 56 1 19 -38 65 -55 65 -4 0
-10 -6 -12 -12 -4 -9 -6 -8 -6 2 -1 23 -55 44 -81 30 -26 -14 -27 4 0 23 11 8
17 17 13 21 -4 4 0 4 10 0 9 -3 14 -11 10 -16 -4 -7 4 -9 21 -6 14 3 29 2 31
-2 6 -10 55 0 55 11 0 5 -4 9 -10 9 -5 0 -10 9 -10 20 0 11 -4 20 -10 20 -5 0
-7 -6 -4 -14 11 -28 -24 -24 -46 6 -22 29 -20 52 2 30 7 -7 19 -12 27 -12 12
1 10 6 -8 20 -14 12 -21 26 -17 35 3 9 2 13 -4 10 -9 -6 -41 9 -72 34 -10 8
-18 11 -18 7 0 -4 -15 4 -32 17 -31 23 -191 88 -250 103 -52 12 -31 -20 32
-49 87 -42 280 -191 280 -217 0 -19 -37 -52 -45 -41 -3 6 -3 16 0 21 3 6 -4
10 -15 10 -16 0 -20 -5 -16 -15 8 -22 -4 -18 -25 7 -22 25 -25 42 -6 35 16 -6
41 29 27 38 -6 3 -10 0 -10 -8 0 -8 -8 -17 -19 -20 -31 -8 -81 28 -81 60 0 11
-3 14 -8 7 -5 -8 -26 -3 -69 19 -66 31 -75 42 -45 50 9 3 4 5 -13 4 -19 -1
-29 2 -28 10 2 7 0 12 -5 12 -19 -3 -23 2 -12 16 15 18 -1 20 -18 3 -21 -21
-13 2 8 24 11 12 19 27 17 32 -3 10 -143 42 -198 45 -8 1 -25 10 -37 21 -23
21 -32 14 -10 -8 9 -9 9 -12 1 -12 -7 0 -15 5 -18 11 -4 6 -23 8 -46 5 -35 -5
-39 -3 -45 20 -16 65 84 85 281 58z m-659 -92 c13 -8 34 -67 34 -94 0 -10 18
-42 40 -70 52 -65 49 -85 -12 -118 -55 -29 -68 -52 -56 -100 32 -124 27 -203
-18 -276 -48 -79 -74 -145 -74 -189 0 -24 -4 -46 -9 -49 -5 -4 -12 -24 -16
-46 -4 -22 -11 -38 -16 -34 -5 3 -9 -3 -9 -13 0 -20 -49 -85 -50 -65 0 6 -4
12 -10 12 -6 0 -6 -9 0 -25 10 -27 1 -38 -20 -24 -27 16 -36 9 -12 -9 22 -17
22 -19 7 -32 -21 -17 -51 -1 -48 26 1 18 1 18 -12 0 -13 -17 -12 -21 3 -33 11
-10 12 -12 2 -8 -10 4 -9 2 3 -8 18 -15 24 -32 7 -22 -10 6 -14 -7 -11 -32 1
-8 -5 -10 -14 -7 -8 3 -15 12 -15 20 0 8 -5 14 -10 14 -17 0 -23 -29 -10 -45
7 -9 10 -18 7 -22 -4 -3 -12 6 -18 21 -7 14 -16 26 -22 26 -5 0 -7 7 -4 15 8
20 -9 28 -30 16 -10 -6 -12 -11 -5 -11 6 0 12 -7 12 -15 0 -18 1 -18 -38 -4
-19 7 -29 16 -26 24 3 8 13 11 21 8 13 -5 13 -3 4 15 -7 14 -8 22 -2 22 6 0 8
8 4 18 -6 15 -4 15 15 -2 l22 -19 -11 31 c-8 24 -8 39 3 62 7 16 16 30 20 30
5 0 8 7 8 16 0 9 8 28 19 42 10 15 26 48 36 74 10 26 24 53 31 59 8 6 14 17
14 23 0 7 6 18 13 25 6 6 12 15 12 19 0 4 16 39 34 77 18 39 37 79 41 90 21
57 32 92 34 110 2 11 8 37 15 58 7 21 11 48 8 59 -3 11 -1 32 5 47 10 24 19
134 18 227 -1 64 47 112 86 86z m-456 -77 c14 -19 14 -19 -2 -6 -10 7 -18 18
-18 24 0 6 1 8 3 6 1 -2 9 -13 17 -24z m-126 3 c-3 -4 -9 -8 -15 -8 -5 0 -9 4
-9 8 0 5 7 9 15 9 8 0 12 -4 9 -9z m91 2 c3 -5 1 -10 -4 -10 -6 0 -11 5 -11
10 0 6 2 10 4 10 3 0 8 -4 11 -10z m-17 -29 c3 -8 -1 -12 -9 -9 -7 2 -15 10
-17 17 -3 8 1 12 9 9 7 -2 15 -10 17 -17z m-166 -13 c-7 -7 -12 -8 -12 -2 0 6
3 14 7 17 3 4 9 5 12 2 2 -3 -1 -11 -7 -17z m128 12 c0 -5 -5 -10 -11 -10 -5
0 -7 -4 -4 -10 3 -5 1 -10 -4 -10 -13 0 -13 3 -5 24 7 18 24 22 24 6z m-60 -4
c0 -3 -4 -8 -10 -11 -5 -3 -10 -1 -10 4 0 6 5 11 10 11 6 0 10 -2 10 -4z m-36
-21 c3 -8 1 -15 -4 -15 -6 0 -10 7 -10 15 0 8 2 15 4 15 2 0 6 -7 10 -15z
m-240 -169 c3 -11 2 -23 -3 -26 -4 -3 -11 -12 -15 -20 -3 -8 -4 -3 -1 13 4 19
1 29 -10 33 -21 9 -19 23 4 21 11 -1 22 -10 25 -21z m-174 -16 c0 -13 -28 -25
-38 -16 -3 4 0 11 8 16 20 13 30 12 30 0z m133 -10 c-3 -11 0 -27 7 -36 11
-13 10 -16 -9 -21 -15 -4 -20 -11 -16 -24 8 -23 -35 -91 -53 -84 -7 3 -10 0
-7 -5 8 -13 -14 -52 -25 -45 -6 3 -7 0 -4 -8 4 -12 -118 -211 -150 -243 -7 -7
-19 -26 -26 -43 -7 -17 -16 -31 -21 -31 -5 0 -9 -7 -9 -15 0 -26 -44 -85 -59
-80 -11 5 -12 3 -1 -10 7 -9 10 -19 6 -22 -4 -4 -11 -1 -16 7 -8 13 -10 12
-10 -2 0 -9 6 -18 12 -20 8 -3 4 -9 -10 -17 -12 -6 -22 -20 -22 -31 0 -20 -17
-36 -28 -25 -3 3 0 10 7 14 9 6 11 18 7 36 -5 19 -3 25 5 19 7 -4 10 -2 7 7
-3 8 -12 13 -22 11 -9 -2 -16 4 -16 13 0 8 4 15 10 15 5 0 12 15 16 34 3 19
13 37 22 41 13 5 14 8 3 14 -10 7 -3 23 30 72 24 35 46 66 49 69 3 3 18 31 34
63 21 42 34 57 50 57 17 0 18 2 6 10 -12 8 -12 11 3 28 9 10 17 24 17 31 0 9
8 11 21 8 17 -5 18 -3 8 10 -11 12 -10 17 4 24 9 6 17 17 17 25 0 8 7 17 15
20 8 4 15 15 15 25 0 10 6 19 14 19 8 0 16 5 18 10 6 19 83 100 95 100 6 0 9
-8 6 -20z m-393 -15 c0 -8 -2 -15 -4 -15 -2 0 -6 7 -10 15 -3 8 -1 15 4 15 6
0 10 -7 10 -15z m2459 -47 c13 -21 13 -22 -1 -10 -9 7 -24 9 -34 5 -17 -6 -17
-5 -5 10 18 22 23 21 40 -5z m-1794 -28 c3 -6 3 -20 0 -31 -7 -21 -7 -21 -31
2 -13 12 -24 26 -24 31 0 12 48 10 55 -2z m-35 -72 c0 -34 -6 -35 -30 -5 -10
12 -22 19 -26 15 -4 -5 1 -17 10 -27 22 -25 15 -52 -30 -107 -19 -22 -31 -44
-28 -47 9 -8 -48 -97 -58 -91 -4 3 -5 -3 -1 -12 5 -14 3 -16 -11 -11 -14 5
-16 3 -11 -12 3 -11 2 -22 -4 -25 -5 -3 -7 -15 -4 -25 3 -10 0 -22 -5 -25 -13
-8 -72 41 -72 60 0 17 1 17 36 -1 30 -15 40 -14 29 4 -3 6 -15 11 -25 11 -28
0 -32 15 -11 41 15 19 21 21 33 11 8 -6 18 -9 21 -5 12 11 8 23 -8 23 -17 0
-20 23 -5 50 11 20 38 17 52 -4 4 -6 10 4 14 22 5 22 11 31 20 28 18 -7 17 14
0 36 -17 24 -26 13 -26 -33 0 -32 -3 -36 -20 -32 -11 3 -20 8 -20 10 0 9 93
147 111 165 9 9 20 14 25 10 4 -4 4 -1 0 6 -4 7 -5 21 -1 30 5 15 9 14 25 -8
11 -14 20 -37 20 -52z m1597 -50 c18 -14 16 -53 -3 -72 -8 -9 -12 -16 -8 -16
14 0 -50 -61 -86 -82 -19 -12 -45 -30 -57 -41 -16 -14 -29 -18 -48 -13 -34 9
-95 -11 -95 -31 0 -24 -82 -123 -174 -208 -47 -44 -90 -81 -96 -81 -5 -1 -14
-2 -19 -3 -20 -2 -140 -112 -161 -146 -13 -21 -28 -34 -36 -31 -8 3 -11 0 -7
-9 3 -9 -3 -18 -13 -22 -11 -3 -22 -11 -26 -17 -6 -8 -11 -7 -17 3 -7 11 -13
9 -30 -8 -23 -23 -51 -28 -51 -10 0 8 -5 8 -15 -1 -8 -7 -12 -16 -9 -21 3 -5
-1 -9 -10 -9 -8 0 -16 6 -19 13 -4 9 -7 9 -18 -1 -12 -11 -12 -14 1 -22 8 -5
11 -10 5 -10 -5 0 -17 5 -25 10 -13 8 -12 11 4 23 18 13 18 14 -8 21 -27 7
-27 8 -12 31 19 29 20 39 3 32 -7 -3 -22 2 -32 10 -19 15 -19 15 3 10 26 -6
30 8 5 18 -17 7 -16 8 2 15 27 11 43 12 26 1 -11 -7 -9 -13 7 -29 11 -11 18
-23 15 -26 -4 -3 -1 -6 5 -6 6 0 14 5 17 10 3 6 2 10 -3 10 -16 0 -22 41 -7
46 7 3 11 14 8 25 -3 11 0 19 6 19 7 0 9 5 6 10 -4 6 -11 8 -16 5 -5 -4 -9 -2
-9 4 0 5 10 13 22 17 12 3 31 18 44 33 12 14 39 35 61 46 21 11 40 22 43 25
20 22 97 70 112 70 10 0 18 6 18 13 0 13 82 68 170 114 30 15 63 36 72 46 9
10 24 17 33 15 9 -2 51 30 98 74 45 42 85 74 89 72 4 -3 8 1 8 9 0 15 67 47
99 47 10 0 29 9 42 21 24 21 59 20 86 -3z m240 -160 c-5 -19 -4 -19 13 -3 16
15 19 15 35 -1 12 -12 13 -19 5 -24 -8 -5 -6 -9 7 -12 10 -3 31 -28 46 -57 25
-44 27 -54 15 -69 -12 -15 -11 -16 4 -4 12 10 18 10 23 1 4 -6 4 -14 -1 -18
-5 -3 -16 -15 -24 -26 -14 -19 -14 -19 5 -3 17 14 22 14 33 2 7 -8 10 -14 7
-14 -3 0 1 -10 9 -22 16 -22 22 -48 10 -35 -4 3 -16 0 -28 -8 -27 -19 -58 -21
-32 -2 17 12 14 47 -5 47 -13 0 -11 -18 4 -23 7 -3 5 -6 -6 -6 -10 -1 -21 7
-24 17 -4 9 -27 50 -51 90 -25 40 -42 75 -39 78 10 11 39 -5 31 -17 -4 -7 3
-6 17 2 21 11 22 14 6 17 -12 3 -16 9 -12 23 4 11 2 19 -5 19 -6 0 -8 -4 -5
-10 3 -5 1 -10 -4 -10 -6 0 -11 5 -11 12 0 6 -6 4 -13 -6 -12 -16 -14 -14 -29
18 -15 30 -15 36 -3 46 8 7 12 17 8 23 -4 6 -1 7 6 2 7 -4 10 -16 8 -27z m-27
18 c0 -3 -4 -8 -10 -11 -5 -3 -10 -1 -10 4 0 6 5 11 10 11 6 0 10 -2 10 -4z
m-3044 -53 c-10 -10 -19 5 -10 18 6 11 8 11 12 0 2 -7 1 -15 -2 -18z m-80
-119 c-3 -8 1 -22 9 -31 17 -16 12 -33 -10 -33 -9 0 -12 6 -8 15 3 9 -2 24
-11 34 -14 15 -14 20 -4 24 24 10 30 7 24 -9z m1058 0 c5 -14 4 -15 -9 -4 -17
14 -19 20 -6 20 5 0 12 -7 15 -16z m-1014 -14 c0 -5 -2 -10 -4 -10 -3 0 -8 5
-11 10 -3 6 -1 10 4 10 6 0 11 -4 11 -10z m991 -13 c-13 -13 -26 -3 -16 12 3
6 11 8 17 5 6 -4 6 -10 -1 -17z m-911 9 c0 -3 -4 -8 -10 -11 -5 -3 -10 -1 -10
4 0 6 5 11 10 11 6 0 10 -2 10 -4z m3840 -13 c11 3 20 3 20 -1 0 -10 -33 -42
-43 -42 -6 0 -8 3 -4 6 3 4 0 13 -8 21 -20 19 -20 39 0 23 8 -7 24 -10 35 -7z
m-3990 -20 c-1 -27 -1 -27 -15 -9 -12 16 -12 22 -2 28 17 11 17 11 17 -19z
m4065 17 c-3 -5 -12 -7 -20 -3 -21 7 -19 13 6 13 11 0 18 -4 14 -10z m-3024
-33 c-13 -13 -26 -3 -16 12 3 6 11 8 17 5 6 -4 6 -10 -1 -17z m64 13 c3 -5 1
-10 -4 -10 -6 0 -11 5 -11 10 0 6 2 10 4 10 3 0 8 -4 11 -10z m2985 -5 c0 -8
-4 -15 -10 -15 -5 0 -7 7 -4 15 4 8 8 15 10 15 2 0 4 -7 4 -15z m-4014 -22
c-10 -10 -19 5 -10 18 6 11 8 11 12 0 2 -7 1 -15 -2 -18z m-122 3 c-3 -8 -1
-17 5 -21 6 -3 11 -11 11 -18 0 -7 -7 -5 -16 5 -15 14 -14 48 0 48 3 0 3 -6 0
-14z m1134 -10 c6 -27 -14 -42 -21 -17 -3 12 -1 19 4 15 5 -3 9 -1 9 5 0 5 -5
12 -10 14 -6 3 -5 4 2 3 7 -1 15 -11 16 -20z m2927 14 c3 -5 1 -10 -4 -10 -6
0 -11 5 -11 10 0 6 2 10 4 10 3 0 8 -4 11 -10z m50 -7 c8 -21 7 -23 -2 -22 -5
1 -7 5 -5 10 3 14 -14 10 -28 -6 -7 -8 -17 -15 -23 -15 -10 0 32 47 44 49 4 1
10 -7 14 -16z m-4045 -23 c0 -5 -8 -10 -17 -10 -15 0 -16 2 -3 10 19 12 20 12
20 0z m45 -10 c-3 -5 -13 -10 -21 -10 -8 0 -12 5 -9 10 3 6 13 10 21 10 8 0
12 -4 9 -10z m969 -5 c-4 -8 -10 -12 -15 -9 -11 6 -2 24 11 24 5 0 7 -7 4 -15z
m2651 -15 c-3 -5 -1 -10 4 -10 6 0 11 -5 11 -11 0 -8 -5 -8 -15 1 -13 11 -12
30 1 30 3 0 2 -4 -1 -10z m322 4 c-3 -3 -12 -4 -19 -1 -8 3 -5 6 6 6 11 1 17
-2 13 -5z m77 -3 c13 -5 16 -10 9 -14 -7 -4 -15 -3 -18 3 -4 6 -15 8 -26 5
-11 -4 -19 -2 -19 4 0 12 26 13 54 2z m-4104 -16 c0 -8 -7 -15 -15 -15 -16 0
-20 12 -8 23 11 12 23 8 23 -8z m1090 5 c0 -5 -4 -10 -10 -10 -5 0 -10 5 -10
10 0 6 5 10 10 10 6 0 10 -4 10 -10z m-1146 -19 c16 -18 16 -18 -9 -14 -25 5
-31 14 -18 26 9 9 8 10 27 -12z m1076 4 c0 -8 -4 -15 -9 -15 -13 0 -22 16 -14
24 11 11 23 6 23 -9z m2345 -10 c-16 -13 -32 -22 -34 -19 -7 6 40 44 54 43 6
0 -3 -11 -20 -24z m313 0 c-3 -3 -9 2 -12 12 -6 14 -5 15 5 6 7 -7 10 -15 7
-18z m-3001 -10 c0 -11 -4 -12 -14 -3 -7 6 -17 8 -20 4 -4 -4 -1 -11 7 -16 9
-6 10 -10 3 -10 -18 0 -26 19 -13 35 14 16 37 10 37 -10z m2709 -20 c-16 -14
-33 -22 -38 -19 -5 3 5 17 23 30 41 30 53 21 15 -11z m704 20 c-7 -8 -16 -15
-21 -15 -5 0 -6 7 -3 15 4 8 13 15 21 15 13 0 13 -3 3 -15z m-3040 -10 c0 -8
-4 -15 -10 -15 -5 0 -7 7 -4 15 4 8 8 15 10 15 2 0 4 -7 4 -15z m2680 11 c0
-3 -4 -8 -10 -11 -5 -3 -10 -1 -10 4 0 6 5 11 10 11 6 0 10 -2 10 -4z m400
-15 c0 -5 -9 -11 -21 -14 -16 -4 -18 -3 -8 9 13 16 29 19 29 5z m-705 -11 c3
-5 1 -10 -4 -10 -6 0 -11 5 -11 10 0 6 2 10 4 10 3 0 8 -4 11 -10z m266 -4
c12 7 12 5 0 -9 -15 -19 -31 -14 -31 11 0 14 2 14 9 3 5 -8 14 -10 22 -5z m53
-28 c-3 -4 0 -9 6 -13 15 -9 12 -25 -5 -25 -8 0 -12 6 -9 14 3 8 1 17 -4 20
-6 3 -8 16 -4 28 5 21 6 21 12 2 4 -10 6 -22 4 -26z m-3390 18 c-5 -13 -34
-31 -34 -21 0 5 30 35 35 35 3 0 2 -6 -1 -14z m-404 -6 c0 -5 -4 -10 -10 -10
-5 0 -10 5 -10 10 0 6 5 10 10 10 6 0 10 -4 10 -10z m710 -5 c0 -8 -4 -15 -10
-15 -5 0 -10 7 -10 15 0 8 5 15 10 15 6 0 10 -7 10 -15z m340 5 c0 -5 -4 -10
-10 -10 -5 0 -10 5 -10 10 0 6 5 10 10 10 6 0 10 -4 10 -10z m47 -12 c-3 -8
-6 -5 -6 6 -1 11 2 17 5 13 3 -3 4 -12 1 -19z m-1075 -10 c-7 -7 -12 -8 -12
-2 0 14 12 26 19 19 2 -3 -1 -11 -7 -17z m3428 12 c0 -5 -2 -10 -4 -10 -2 0
-12 -3 -22 -7 -16 -6 -17 -5 -4 10 17 19 30 22 30 7z m30 0 c0 -5 -2 -10 -4
-10 -3 0 -8 5 -11 10 -3 6 -1 10 4 10 6 0 11 -4 11 -10z m763 -5 c4 -8 2 -17
-3 -20 -6 -4 -10 3 -10 14 0 25 6 27 13 6z m-4308 -5 c3 -5 1 -10 -4 -10 -6 0
-11 5 -11 10 0 6 2 10 4 10 3 0 8 -4 11 -10z m485 -20 c0 -5 -4 -10 -10 -10
-5 0 -10 5 -10 10 0 6 5 10 10 10 6 0 10 -4 10 -10z m270 -5 c0 -8 -10 -19
-22 -25 -22 -10 -22 -10 -4 4 10 8 15 19 11 25 -3 6 -1 11 4 11 6 0 11 -7 11
-15z m60 11 c0 -11 -19 -15 -25 -6 -3 5 1 10 9 10 9 0 16 -2 16 -4z m280 -6
c0 -5 -5 -10 -11 -10 -5 0 -7 5 -4 10 3 6 8 10 11 10 2 0 4 -4 4 -10z m2460 0
c0 -5 -2 -10 -4 -10 -3 0 -8 5 -11 10 -3 6 -1 10 4 10 6 0 11 -4 11 -10z m260
6 c0 -3 -4 -8 -10 -11 -5 -3 -10 -1 -10 4 0 6 5 11 10 11 6 0 10 -2 10 -4z
m-3366 -21 c-4 -8 -16 -15 -28 -15 -20 0 -20 1 4 14 14 8 26 14 27 15 1 1 0
-6 -3 -14z m3076 0 c7 -8 9 -15 6 -15 -4 0 -14 7 -22 15 -9 8 -11 15 -6 15 5
0 15 -7 22 -15z m300 -9 c0 -3 -4 -8 -10 -11 -5 -3 -10 -1 -10 4 0 6 5 11 10
11 6 0 10 -2 10 -4z m60 0 c0 -3 -4 -8 -10 -11 -5 -3 -10 -1 -10 4 0 6 5 11
10 11 6 0 10 -2 10 -4z m-3100 -16 c0 -5 -5 -10 -11 -10 -5 0 -7 5 -4 10 3 6
8 10 11 10 2 0 4 -4 4 -10z m350 1 c0 -6 -4 -13 -10 -16 -5 -3 -10 1 -10 9 0
9 5 16 10 16 6 0 10 -4 10 -9z m-1100 -21 c-8 -5 -17 -7 -19 -4 -3 3 1 9 9 14
8 5 17 7 19 4 3 -3 -1 -9 -9 -14z m3489 -1 c-10 -6 -10 -11 0 -23 9 -10 9 -16
3 -16 -12 0 -32 31 -32 48 0 6 9 8 21 5 15 -4 17 -8 8 -14z m51 0 c0 -5 -4 -9
-10 -9 -5 0 -10 7 -10 16 0 8 5 12 10 9 6 -3 10 -10 10 -16z m-1500 -5 c0 -13
-3 -14 -13 -5 -8 6 -18 7 -22 3 -5 -4 -5 -1 -1 6 10 18 36 15 36 -4z m1770 12
c0 -2 -7 -6 -15 -10 -8 -3 -15 -1 -15 4 0 6 7 10 15 10 8 0 15 -2 15 -4z
m-2753 -38 c-3 -8 -6 -5 -6 6 -1 11 2 17 5 13 3 -3 4 -12 1 -19z m2748 2 c3
-5 1 -10 -4 -10 -6 0 -11 5 -11 10 0 6 2 10 4 10 3 0 8 -4 11 -10z m-2125 -11
c0 -5 3 -8 8 -5 4 2 18 -12 31 -32 19 -29 20 -34 5 -21 -10 9 -29 25 -41 35
-24 20 -30 34 -13 34 6 0 10 -5 10 -11z m-1750 -3 c0 -11 -19 -15 -25 -6 -3 5
1 10 9 10 9 0 16 -2 16 -4z m3615 -6 c3 -5 1 -10 -4 -10 -6 0 -11 5 -11 10 0
6 2 10 4 10 3 0 8 -4 11 -10z m-2869 -27 c-10 -10 -19 5 -10 18 6 11 8 11 12
0 2 -7 1 -15 -2 -18z m1103 1 c25 -29 21 -46 -4 -20 -9 9 -21 16 -26 16 -5 0
-9 7 -9 15 0 22 14 18 39 -11z m2051 22 c0 -2 -7 -7 -16 -10 -8 -3 -12 -2 -9
4 6 10 25 14 25 6z m-1885 -25 c-8 -14 -35 -14 -35 -1 0 5 7 7 15 4 8 -4 15
-1 15 7 0 7 3 10 6 6 3 -3 3 -10 -1 -16z m-285 -11 c0 -5 -2 -10 -4 -10 -3 0
-8 5 -11 10 -3 6 -1 10 4 10 6 0 11 -4 11 -10z m1890 0 c0 -5 -2 -10 -4 -10
-3 0 -8 5 -11 10 -3 6 -1 10 4 10 6 0 11 -4 11 -10z m-1844 -25 c28 -26 26
-32 -5 -15 -17 8 -37 40 -26 40 2 0 16 -11 31 -25z m274 15 c12 -8 12 -10 -3
-16 -14 -5 -15 -9 -6 -20 8 -10 8 -14 0 -14 -6 0 -11 5 -11 11 0 6 -8 8 -19 4
-10 -3 -24 1 -31 10 -8 10 -9 15 -1 15 6 0 11 -4 11 -9 0 -5 9 -7 21 -4 12 3
18 11 15 19 -6 16 3 18 24 4z m1857 4 c-3 -3 -12 -4 -19 -1 -8 3 -5 6 6 6 11
1 17 -2 13 -5z m-2181 -81 c-7 -7 -26 7 -26 19 0 6 6 6 15 -2 9 -7 13 -15 11
-17z m526 15 c-9 -9 -9 -15 1 -27 11 -14 10 -14 -5 -2 -23 17 -23 41 -1 41 13
0 14 -3 5 -12z m-490 -30 c-7 -7 -12 -8 -12 -2 0 14 12 26 19 19 2 -3 -1 -11
-7 -17z m443 12 c3 -5 2 -10 -4 -10 -5 0 -13 5 -16 10 -3 6 -2 10 4 10 5 0 13
-4 16 -10z m-140 -20 c3 -5 1 -10 -4 -10 -6 0 -11 5 -11 10 0 6 2 10 4 10 3 0
8 -4 11 -10z m170 0 c3 -5 1 -10 -4 -10 -6 0 -11 5 -11 10 0 6 2 10 4 10 3 0
8 -4 11 -10z m-95 -10 c0 -5 -8 -10 -17 -10 -15 0 -16 2 -3 10 19 12 20 12 20
0z m60 -20 c0 -5 -5 -10 -11 -10 -5 0 -7 5 -4 10 3 6 8 10 11 10 2 0 4 -4 4
-10z m1450 -24 c0 -3 -4 -8 -10 -11 -5 -3 -10 -1 -10 4 0 6 5 11 10 11 6 0 10
-2 10 -4z"/>
<path d="M5865 8250 c3 -5 8 -10 11 -10 2 0 4 5 4 10 0 6 -5 10 -11 10 -5 0
-7 -4 -4 -10z"/>
<path d="M5662 8228 c3 -7 35 -25 74 -41 38 -16 78 -38 90 -48 11 -10 28 -19
37 -19 9 0 27 -10 39 -22 13 -13 27 -23 33 -23 5 0 26 -9 45 -20 19 -11 46
-20 60 -20 19 -1 24 -6 23 -22 -2 -17 7 -26 37 -39 22 -10 40 -21 40 -25 0 -5
25 -24 55 -44 30 -20 62 -47 72 -60 10 -12 45 -39 77 -60 50 -31 57 -39 43
-47 -25 -13 -22 -31 3 -18 32 17 114 -31 200 -119 41 -42 86 -85 100 -96 30
-24 120 -145 145 -195 10 -19 23 -42 30 -50 26 -31 166 -305 204 -398 44 -111
98 -281 135 -427 14 -55 32 -120 40 -144 9 -24 13 -47 10 -52 -2 -5 0 -17 5
-27 5 -10 11 -41 12 -68 1 -27 5 -53 8 -59 3 -5 6 -26 7 -45 1 -19 5 -91 10
-160 9 -137 9 -149 0 -330 -6 -121 -10 -167 -22 -240 -3 -19 -7 -51 -10 -70
-24 -187 -98 -413 -201 -617 -47 -94 -97 -183 -110 -197 -12 -14 -23 -31 -23
-37 0 -7 -10 -26 -23 -43 -13 -17 -31 -50 -40 -74 -16 -41 -16 -42 0 -33 30
15 131 120 138 141 4 11 24 41 46 66 21 25 39 51 39 57 0 7 19 43 43 79 63
100 79 129 93 168 7 19 23 42 35 51 15 11 18 18 9 21 -10 3 -8 14 7 48 11 25
23 58 27 73 3 15 11 25 16 22 5 -3 7 0 4 8 -3 8 0 34 6 57 9 35 15 41 32 37
19 -5 19 -5 3 13 -25 27 -13 94 15 87 16 -4 18 -2 10 12 -5 10 -7 33 -5 52 12
104 16 119 33 119 15 0 15 2 2 10 -13 9 -13 11 0 20 12 8 12 10 1 10 -11 0
-13 14 -7 72 4 40 12 76 19 80 6 4 8 8 2 8 -6 0 -9 73 -8 202 1 112 -3 232 -9
267 -7 48 -7 66 2 71 9 6 9 9 -1 12 -16 5 -31 138 -18 155 6 7 6 12 -2 15 -6
2 -12 25 -14 51 -2 27 -9 55 -15 62 -7 8 -10 21 -7 29 3 8 -2 17 -11 21 -13 5
-14 8 -3 14 11 7 10 13 -3 33 -9 13 -18 38 -20 54 -2 16 -15 56 -28 89 -13 33
-32 89 -42 125 -10 36 -29 89 -42 118 -13 29 -24 56 -24 61 0 5 -9 20 -20 34
-12 15 -17 32 -13 43 4 11 3 15 -4 11 -6 -4 -13 0 -16 7 -3 8 -1 17 6 20 8 3
6 5 -3 5 -16 1 -50 53 -50 77 0 8 -6 14 -14 14 -7 0 -16 8 -19 18 -4 9 -18 36
-32 60 -14 23 -25 49 -25 57 0 8 -4 15 -10 15 -5 0 -25 29 -45 65 -20 35 -58
84 -84 107 -27 24 -51 54 -55 66 -4 12 -12 20 -17 16 -13 -7 -59 34 -59 53 0
7 -5 13 -10 13 -6 0 -37 25 -70 55 -33 30 -66 55 -74 55 -8 0 -25 12 -38 28
-27 32 -71 62 -92 62 -8 0 -16 3 -18 8 -6 13 -102 90 -138 109 -19 11 -41 32
-48 47 -8 16 -32 35 -60 48 -26 11 -55 25 -65 30 -11 5 -21 7 -24 4 -3 -3 -15
6 -25 20 -15 18 -23 22 -33 14 -14 -11 -45 -3 -45 12 0 5 -4 7 -9 4 -12 -8
-102 40 -123 65 -9 10 -23 19 -31 19 -7 0 -40 9 -73 21 -78 27 -96 30 -92 17z
m501 -245 c-7 -2 -19 -2 -25 0 -7 3 -2 5 12 5 14 0 19 -2 13 -5z"/>
<path d="M4270 8182 c-74 -32 -96 -48 -175 -127 -85 -86 -185 -172 -185 -161
0 5 -26 -18 -95 -85 -22 -21 -48 -39 -57 -39 -12 0 -15 -5 -11 -17 5 -12 2
-15 -10 -10 -10 4 -16 2 -14 -6 1 -7 -4 -11 -11 -9 -8 1 -11 -1 -8 -6 3 -5
-16 -26 -41 -48 -91 -78 -174 -170 -314 -349 -39 -49 -77 -98 -85 -108 -8 -9
-14 -21 -14 -25 0 -5 -12 -24 -26 -43 -41 -54 -124 -198 -124 -214 0 -8 -15
-38 -32 -67 -18 -29 -34 -59 -36 -67 -2 -8 -18 -48 -36 -90 -18 -42 -38 -95
-43 -119 -10 -43 -10 -43 13 -38 18 5 24 2 24 -9 0 -9 -4 -13 -10 -10 -5 3
-10 1 -10 -4 0 -6 -7 -11 -15 -11 -8 0 -21 -13 -30 -29 -24 -47 -73 -240 -79
-311 -2 -36 -12 -92 -21 -125 -8 -33 -17 -91 -19 -128 -2 -37 -6 -71 -9 -74
-4 -3 0 -17 8 -32 10 -20 10 -32 3 -45 -18 -31 -3 -354 18 -387 2 -4 18 -70
34 -146 47 -225 121 -405 299 -728 101 -182 103 -185 233 -313 58 -57 111
-115 119 -130 8 -15 24 -37 36 -49 12 -13 26 -29 30 -36 12 -18 160 -139 213
-173 25 -16 47 -32 50 -35 8 -9 50 -30 50 -25 0 25 -49 98 -72 108 -15 7 -28
16 -28 20 0 3 -39 44 -87 90 -140 134 -225 219 -273 276 -41 48 -153 243 -230
397 -51 104 -143 358 -160 443 -7 31 -18 86 -26 122 -36 170 -41 208 -49 374
-6 131 -7 134 -77 157 -21 7 -38 18 -38 26 0 8 -4 11 -10 8 -5 -3 -10 -2 -10
4 0 5 9 9 20 8 11 -1 20 -5 20 -10 0 -5 6 -7 14 -4 7 3 27 -3 45 -14 31 -19
31 -19 35 4 3 12 7 51 10 87 3 36 8 98 12 138 7 70 6 74 -17 90 -13 9 -28 16
-32 14 -12 -4 -37 25 -29 33 4 4 -3 2 -15 -4 -19 -10 -23 -9 -23 4 0 8 -5 15
-11 15 -5 0 -7 5 -4 10 10 17 49 11 98 -14 41 -20 47 -21 51 -7 8 25 66 318
66 330 0 6 -11 16 -25 23 -13 6 -22 14 -20 19 3 4 1 10 -5 14 -20 12 1 25 22
14 16 -9 18 -13 7 -20 -7 -4 -11 -11 -7 -14 3 -4 17 1 30 9 17 11 33 41 51 99
15 45 37 111 50 147 29 83 192 411 218 438 10 12 19 26 19 31 0 10 140 223
166 251 26 30 91 106 118 140 69 85 172 192 223 232 30 23 93 81 140 128 47
47 82 79 78 73 -3 -7 -1 -13 4 -13 6 0 11 8 11 18 0 9 15 26 33 38 17 12 65
42 105 68 39 26 72 52 72 57 0 5 -1 9 -2 8 -2 0 -41 -17 -88 -37z"/>
<path d="M5630 8130 c0 -5 7 -10 16 -10 8 0 12 5 9 10 -3 6 -10 10 -16 10 -5
0 -9 -4 -9 -10z"/>
<path d="M4461 8111 c-7 -5 -12 -14 -10 -20 2 -6 10 -2 17 9 14 22 13 23 -7
11z"/>
<path d="M4588 8101 c-19 -11 -39 -17 -42 -14 -3 4 -6 1 -6 -5 0 -6 -10 -14
-22 -18 -13 -4 -52 -35 -88 -69 -36 -35 -99 -90 -140 -123 -99 -79 -240 -229
-347 -367 -39 -51 -66 -105 -54 -105 6 0 7 -7 4 -17 -4 -11 -3 -14 5 -9 7 4
12 1 12 -10 0 -13 -6 -15 -30 -11 -32 7 -46 -7 -100 -99 -14 -23 -40 -66 -57
-96 -54 -91 -52 -96 47 -129 47 -16 90 -27 97 -25 7 3 20 31 29 63 17 61 86
207 130 277 14 23 50 82 79 131 88 151 173 271 233 330 12 12 22 27 22 32 0
11 79 91 104 105 8 5 13 15 10 23 -4 8 -2 15 4 15 6 0 37 27 70 60 32 33 64
60 70 60 6 0 14 5 17 10 9 15 -7 12 -47 -9z"/>
<path d="M4383 8094 c-3 -9 -34 -29 -68 -44 -35 -16 -97 -51 -138 -80 -127
-87 -507 -478 -507 -521 0 -5 -20 -27 -45 -50 -25 -23 -45 -47 -45 -53 0 -6
-10 -22 -21 -36 -39 -49 -118 -168 -119 -181 0 -3 19 -11 43 -18 54 -16 87
-37 87 -56 0 -20 -18 -19 -68 5 -62 30 -75 26 -116 -35 -20 -30 -36 -61 -36
-68 0 -7 -7 -22 -15 -33 -8 -10 -15 -25 -15 -32 0 -7 -9 -31 -20 -54 -11 -22
-18 -44 -15 -47 2 -4 25 -8 51 -10 26 -1 63 -9 82 -17 20 -8 38 -11 42 -7 3 5
28 60 55 123 61 146 164 357 213 437 79 132 238 343 337 448 31 33 63 71 72
85 8 14 47 50 86 80 38 30 76 61 83 68 7 6 16 12 20 12 3 0 14 8 23 18 9 10
28 27 44 36 31 21 34 31 12 40 -9 3 -18 -1 -22 -10z"/>
<path d="M5470 8103 c0 -4 19 -26 43 -48 144 -135 282 -312 394 -503 31 -54
72 -121 91 -151 18 -29 42 -77 52 -105 20 -56 108 -257 115 -265 3 -2 22 5 43
16 20 12 56 24 80 28 27 4 42 12 42 22 0 12 -44 104 -115 241 -19 37 -21 37
-91 16 -55 -18 -84 -14 -84 10 0 18 31 29 87 31 23 0 45 4 49 7 8 9 -39 85
-81 132 -19 21 -35 43 -35 48 0 5 -13 23 -30 40 -16 16 -30 36 -30 44 0 8 -7
14 -15 14 -8 0 -15 4 -15 8 0 12 -124 138 -168 169 -56 41 -210 172 -253 216
-33 33 -79 50 -79 30z"/>
<path d="M5676 8088 c9 -32 37 -45 77 -39 4 0 7 -5 7 -13 0 -8 8 -17 18 -20
46 -15 306 -308 389 -439 28 -45 64 -97 79 -115 15 -19 59 -100 97 -180 89
-188 101 -206 130 -190 33 17 83 26 98 17 25 -15 -6 -57 -53 -70 -24 -6 -46
-13 -50 -15 -4 -3 2 -28 14 -57 11 -29 30 -83 42 -122 20 -63 25 -70 47 -68
13 2 52 6 87 9 l63 7 -5 38 c-3 21 -10 46 -15 56 -6 10 -26 52 -46 93 -20 41
-45 91 -56 110 -10 19 -19 44 -19 55 0 17 -74 139 -110 182 -5 7 -10 15 -10
18 0 4 -16 26 -35 49 -19 24 -35 47 -35 53 0 5 -27 49 -60 97 -33 49 -60 90
-60 92 0 3 -9 15 -21 27 -11 12 -18 30 -15 39 3 14 -2 18 -20 18 -13 0 -33 10
-44 23 -10 12 -47 42 -81 67 -34 25 -83 65 -109 90 -25 25 -55 53 -66 62 -10
9 -23 22 -29 28 -23 25 -89 70 -101 70 -8 0 -14 4 -14 9 0 11 -56 32 -64 24
-3 -4 -6 -1 -6 5 0 7 -7 12 -16 12 -11 0 -14 -6 -8 -22z"/>
<path d="M4720 8077 c0 -6 -20 -23 -44 -35 -57 -31 -346 -339 -346 -369 0 -5
-16 -28 -35 -50 -19 -23 -35 -44 -35 -46 0 -3 -25 -41 -56 -84 -31 -43 -63
-93 -71 -112 -17 -39 -17 -39 67 -76 25 -11 51 -24 59 -29 41 -26 -79 -26
-131 1 -26 12 -29 12 -47 -9 -28 -32 -122 -228 -119 -246 3 -17 64 -41 121
-48 21 -3 50 -10 64 -15 34 -13 41 -5 63 73 26 89 73 216 97 263 12 22 42 92
67 154 25 62 53 125 63 140 10 14 26 44 36 66 10 22 21 42 25 45 4 3 22 35 41
72 19 37 42 75 53 84 10 10 18 21 18 26 0 4 16 31 35 58 19 28 51 73 70 100
25 36 31 50 20 50 -8 0 -15 -6 -15 -13z"/>
<path d="M5336 8076 c3 -9 11 -16 16 -16 13 0 5 23 -10 28 -7 2 -10 -2 -6 -12z"/>
<path d="M4952 8027 c-47 -105 -115 -284 -139 -367 -37 -127 -84 -338 -88
-397 -2 -29 -12 -67 -22 -85 -9 -18 -18 -42 -19 -53 0 -11 -11 -58 -23 -104
-14 -51 -19 -87 -13 -93 14 -14 114 -25 145 -17 18 5 32 3 41 -6 7 -8 26 -12
42 -10 18 2 33 -3 40 -13 10 -14 7 -18 -19 -27 -18 -6 -36 -8 -42 -5 -5 4 -22
5 -37 3 -17 -2 -28 1 -28 8 0 8 -4 8 -13 1 -7 -6 -41 -10 -76 -9 -38 2 -66 -2
-72 -9 -9 -11 -20 -60 -21 -94 0 -8 -6 -53 -13 -100 -16 -97 -10 -109 54 -112
66 -3 76 -4 101 -15 16 -7 27 -7 31 -1 4 6 22 0 44 -15 l38 -26 -104 5 c-185
9 -199 6 -199 -42 0 -12 -5 -26 -11 -29 -16 -10 -49 25 -49 52 0 13 -5 33 -11
44 -8 15 -6 27 10 53 13 20 21 50 21 77 0 24 4 60 9 79 5 19 12 59 15 88 5 47
3 53 -11 48 -18 -7 -132 12 -149 25 -5 4 -19 6 -31 3 -11 -3 -35 1 -52 10 -29
16 -31 15 -45 -6 -8 -13 -24 -54 -36 -93 -12 -38 -31 -94 -42 -124 -11 -31
-15 -58 -10 -63 12 -12 41 -17 156 -29 110 -12 157 -32 133 -56 -16 -16 -57
-19 -137 -9 -174 20 -176 20 -185 -40 -7 -43 -22 -112 -39 -174 -8 -30 -12
-58 -10 -62 2 -3 30 -9 62 -13 31 -4 70 -11 85 -17 16 -6 42 -12 58 -13 35 -3
34 -3 43 -32 10 -33 -25 -38 -145 -21 -99 14 -101 14 -115 -7 -8 -13 -16 -66
-20 -137 -5 -98 -4 -120 10 -139 17 -24 22 -64 8 -55 -5 3 -18 -1 -29 -9 -18
-13 -22 -30 -29 -132 -5 -65 -8 -127 -7 -138 2 -21 3 -128 2 -155 0 -8 6 -78
15 -155 23 -200 27 -228 32 -236 4 -7 30 -140 39 -202 4 -26 52 -213 89 -348
34 -121 169 -421 228 -507 44 -63 106 -140 146 -180 17 -18 32 -35 32 -38 0
-9 -54 5 -61 17 -4 7 -12 8 -20 4 -9 -6 -11 -4 -6 7 4 12 0 14 -16 10 -20 -5
-21 -4 -8 12 12 15 12 19 1 26 -7 4 -20 6 -29 2 -12 -4 -11 0 4 18 17 20 17
22 3 17 -10 -3 -20 -2 -23 3 -4 6 -1 10 5 10 6 0 9 4 6 9 -3 5 -14 7 -25 4
-15 -4 -18 0 -16 22 3 20 0 25 -11 21 -9 -3 -14 1 -14 14 0 11 -7 20 -15 20
-8 0 -15 8 -15 19 0 10 -9 21 -19 24 -14 3 -45 57 -102 173 -89 183 -124 277
-170 454 -16 63 -36 140 -45 170 -20 72 -51 293 -69 500 -15 180 -14 379 5
479 6 35 8 67 3 71 -4 4 -37 10 -73 13 -87 7 -150 18 -150 26 0 3 -13 7 -29 8
-37 3 -40 -7 -48 -173 l-6 -131 44 -18 c24 -11 49 -19 54 -20 6 0 13 -5 18
-12 4 -7 13 -10 21 -7 7 3 24 -4 37 -15 13 -11 18 -20 12 -21 -7 0 -13 3 -13
8 0 4 -24 7 -52 7 -42 0 -52 3 -50 15 3 12 1 13 -9 3 -7 -7 -23 -13 -36 -13
-24 0 -24 0 -18 -102 7 -128 26 -239 89 -528 48 -219 171 -549 278 -745 49
-90 120 -193 173 -251 20 -22 64 -69 98 -107 34 -37 62 -73 62 -80 0 -33 141
-127 191 -127 13 0 34 -4 48 -10 14 -5 47 -12 74 -14 60 -6 100 -21 130 -48
20 -19 22 -20 22 -4 0 13 5 16 18 11 42 -17 153 -35 217 -35 96 1 261 16 277
26 7 5 18 9 23 9 6 1 24 5 40 9 17 4 56 14 89 21 32 8 67 22 77 31 10 9 25 13
37 9 11 -3 23 -1 27 5 3 5 1 10 -5 10 -6 0 -2 14 10 31 12 16 25 28 28 25 3
-3 11 2 18 12 8 10 13 12 14 5 0 -17 20 -17 20 0 0 14 50 47 73 47 8 0 17 9
20 21 3 12 10 18 16 14 6 -3 11 -2 11 4 0 15 63 81 77 81 7 0 10 7 7 15 -4 8
-2 15 3 15 5 0 40 39 77 88 62 81 101 131 176 224 17 20 30 43 30 50 0 13 121
153 190 220 41 40 54 63 93 173 33 91 44 129 67 217 10 40 28 109 40 153 12
44 24 104 26 133 2 30 9 62 14 72 6 11 9 23 8 27 -4 15 13 103 20 103 4 0 7
77 6 170 0 102 3 170 9 170 6 0 7 24 2 63 -4 34 -7 73 -7 87 0 14 -5 29 -11
33 -8 6 -8 10 -2 13 10 4 9 61 -1 93 -4 11 -7 11 -22 -2 -9 -9 -58 -24 -107
-33 -50 -10 -92 -18 -94 -20 -3 -3 -3 -19 -2 -206 1 -100 10 -111 88 -110 23
1 43 -3 43 -7 0 -12 -20 -18 -52 -17 -16 1 -28 -2 -28 -6 0 -4 -9 -8 -20 -8
-31 0 -39 -31 -49 -210 -5 -91 -15 -199 -21 -240 -14 -90 -69 -331 -80 -345
-4 -5 -13 -32 -19 -60 -7 -27 -20 -58 -28 -67 -10 -11 -12 -18 -5 -18 7 0 12
-4 12 -10 0 -5 -7 -10 -15 -10 -9 0 -12 -6 -9 -15 4 -9 0 -15 -10 -15 -9 0
-16 -6 -16 -14 0 -8 -5 -16 -11 -18 -9 -3 -9 -10 0 -26 6 -12 9 -22 7 -22 -14
0 -26 41 -17 58 6 11 13 45 16 78 11 125 17 168 25 183 26 51 46 146 65 296 7
61 18 144 24 185 7 41 12 127 12 190 0 63 1 180 2 260 3 127 1 148 -16 173
-10 15 -14 27 -8 27 10 0 27 39 23 54 -2 4 -11 54 -22 110 -36 185 -43 217
-49 213 -3 -2 -21 -9 -38 -16 -18 -7 -33 -17 -33 -21 0 -13 -57 -28 -132 -36
-38 -3 -68 -9 -68 -13 0 -4 4 -42 10 -86 5 -44 10 -96 11 -115 0 -19 3 -53 6
-74 l5 -39 112 7 c61 4 120 8 131 9 11 1 21 -5 23 -15 4 -20 -27 -35 -81 -41
-18 -2 -38 -7 -45 -11 -7 -4 -38 -10 -70 -13 -61 -6 -75 -17 -66 -47 9 -28 3
-344 -9 -476 -4 -41 -9 -104 -12 -140 -8 -109 -15 -156 -36 -237 -11 -43 -22
-89 -25 -103 -7 -31 -24 -51 -24 -27 0 9 -4 17 -9 17 -13 0 -21 -27 -15 -45 5
-11 2 -13 -10 -9 -18 7 -16 54 6 139 6 22 21 119 34 215 21 161 23 201 18 505
-2 182 -6 348 -8 370 -10 122 -20 192 -27 207 -5 9 -9 41 -9 70 0 29 -5 71
-11 93 -6 22 -15 66 -20 97 -5 32 -18 85 -29 118 -11 32 -20 74 -20 92 0 32
-47 214 -69 272 -8 21 -16 26 -29 21 -9 -4 -21 -8 -27 -9 -5 -1 -21 -8 -34
-15 -13 -7 -60 -14 -105 -16 -44 -2 -85 -3 -89 -4 -5 -1 -5 -44 -1 -96 l7 -95
-36 0 c-34 0 -36 2 -42 38 -3 20 -13 66 -21 100 -8 35 -12 72 -9 82 3 11 1 38
-6 62 -15 58 -49 233 -55 288 -10 88 -96 457 -140 605 -54 178 -60 195 -74
195 -23 0 -28 -60 -35 -427 -8 -429 -14 -393 71 -396 27 -1 52 -6 57 -12 4 -6
10 -5 15 3 7 11 11 10 20 -1 13 -15 6 -17 -50 -19 -16 0 -28 -5 -28 -9 0 -5
-4 -9 -10 -9 -5 0 -10 8 -10 18 0 11 -3 13 -8 5 -5 -8 -13 -9 -22 -3 -24 15
-29 12 -35 -22 -9 -58 -14 -263 -6 -276 5 -9 31 -12 82 -11 41 1 86 -1 100 -5
14 -4 34 -8 44 -10 10 -2 21 -8 22 -13 6 -18 -15 -25 -38 -12 -16 8 -20 8 -14
-1 4 -7 2 -10 -6 -9 -8 1 -22 -1 -32 -6 -10 -4 -49 -5 -87 -3 l-68 5 -6 -32
c-4 -18 -7 -89 -7 -159 -1 -137 -8 -180 -30 -183 -39 -7 -43 10 -47 194 -2 98
-4 187 -4 198 0 11 0 88 0 170 0 83 1 159 1 170 0 11 3 88 5 170 3 83 7 200
10 260 10 231 11 428 1 431 -5 2 -21 -20 -33 -49z m-119 -799 l22 -12 -25 -7
c-38 -11 -60 -10 -60 2 0 5 5 7 10 4 6 -3 10 1 10 9 0 19 14 20 43 4z m57 -20
c0 -9 3 -9 12 0 17 17 27 15 24 -5 -3 -21 -33 -28 -66 -14 -19 7 -20 10 -7 10
10 1 15 6 12 11 -3 6 1 10 9 10 9 0 16 -5 16 -12z m890 -640 c0 -5 -4 -6 -10
-3 -5 3 -10 0 -10 -7 0 -9 -3 -9 -10 2 -7 11 -10 11 -10 2 0 -7 -4 -10 -10 -7
-18 11 -10 20 20 21 17 1 30 -3 30 -8z m-261 -74 c30 -38 27 -47 -25 -68 -44
-18 -130 -92 -114 -98 5 -2 0 -28 -10 -58 -9 -30 -23 -75 -30 -100 -6 -25 -16
-63 -22 -85 -20 -74 -49 -157 -58 -168 -40 -49 -59 -75 -70 -97 -16 -30 -77
-103 -146 -174 -99 -102 -194 -266 -194 -335 0 -62 25 -103 80 -130 64 -31
120 -90 171 -181 65 -117 158 -248 213 -302 28 -27 83 -67 121 -88 85 -48 131
-90 170 -152 17 -27 35 -48 42 -48 7 0 26 -20 43 -45 41 -59 59 -68 88 -45 33
27 63 13 150 -68 60 -56 72 -73 72 -99 0 -18 -7 -36 -15 -40 -35 -20 -179 23
-206 60 -3 5 -9 7 -12 5 -11 -6 -87 46 -87 59 0 7 -6 13 -13 13 -7 0 -26 14
-43 31 -16 17 -42 37 -59 45 -16 8 -52 27 -80 42 -27 15 -81 45 -120 66 -62
34 -111 68 -180 121 -11 8 -39 29 -62 46 -24 17 -43 34 -43 38 0 5 -9 12 -19
17 -10 5 -56 44 -101 86 -45 42 -103 87 -128 99 -26 13 -49 26 -52 29 -3 4
-18 10 -35 14 -26 5 -28 5 -13 -7 12 -10 14 -17 6 -32 -9 -15 -8 -17 5 -12 10
4 18 -1 22 -13 3 -10 29 -42 57 -72 98 -103 124 -152 153 -288 9 -41 33 -104
62 -157 l48 -88 -3 -153 -2 -152 48 -48 c65 -62 74 -80 57 -112 -7 -14 -27
-38 -44 -54 -26 -25 -31 -37 -31 -75 0 -54 -30 -111 -59 -111 -11 0 -25 13
-34 33 -18 39 -23 76 -41 327 -3 30 -7 62 -10 70 -3 8 -8 33 -11 54 -16 112
-51 212 -131 376 -95 193 -100 202 -114 228 -32 58 -106 263 -115 321 -3 19
-8 37 -10 41 -6 10 -13 53 -30 185 -9 66 -20 138 -25 160 -5 22 -5 59 -1 81 6
31 3 54 -11 90 -10 27 -18 57 -18 67 0 9 -6 17 -13 17 -15 0 -67 -57 -67 -75
0 -7 -27 -27 -60 -44 -87 -46 -115 -74 -130 -125 -15 -54 -41 -84 -71 -82 -86
4 -4 194 110 257 20 11 54 31 76 44 22 14 60 37 85 52 25 15 63 50 85 77 43
53 47 56 157 105 49 21 71 38 83 60 15 31 15 33 -16 76 -27 37 -31 50 -26 82
8 49 73 143 112 162 17 8 37 18 46 22 17 8 89 -5 120 -22 29 -15 50 -54 55
-100 5 -58 -33 -118 -100 -156 -57 -32 -73 -73 -39 -98 27 -20 101 24 164 99
29 34 58 66 64 71 18 15 30 42 65 145 18 52 36 100 40 105 3 6 15 33 25 60 45
125 104 210 160 231 49 19 72 16 94 -12z m1108 -941 c2 -6 -10 -13 -27 -15
-21 -3 -30 0 -30 10 0 8 6 12 15 8 8 -3 15 -1 15 5 0 13 22 7 27 -8z m-745
-848 c-2 -14 -6 -25 -8 -25 -2 0 -4 11 -4 25 0 14 4 25 9 25 4 0 6 -11 3 -25z"/>
<path d="M5515 4500 c-3 -5 -1 -10 4 -10 6 0 11 5 11 10 0 6 -2 10 -4 10 -3 0
-8 -4 -11 -10z"/>
<path d="M3921 8057 c-6 -8 -29 -22 -51 -32 -22 -10 -40 -24 -40 -30 0 -7 -10
-15 -23 -19 -74 -18 -470 -375 -585 -526 -23 -30 -74 -95 -112 -145 -39 -49
-70 -93 -70 -98 0 -4 -29 -52 -65 -107 -67 -102 -102 -168 -150 -280 -15 -36
-33 -80 -41 -98 -8 -18 -14 -38 -14 -44 0 -6 -6 -19 -13 -27 -8 -9 -21 -41
-30 -71 -8 -30 -29 -100 -45 -155 -30 -99 -49 -177 -57 -225 -16 -101 -28
-246 -27 -312 1 -35 -3 -58 -10 -58 -7 0 -7 -4 0 -12 5 -7 12 -53 16 -103 10
-148 30 -296 47 -352 5 -17 9 -35 8 -40 -3 -13 44 -184 62 -228 5 -11 22 -57
38 -101 16 -45 39 -99 50 -120 12 -21 21 -42 21 -46 0 -15 66 -140 142 -270
39 -65 221 -268 232 -257 3 3 -2 15 -11 26 -53 61 -83 105 -126 182 -50 90
-92 176 -180 371 -52 114 -146 487 -166 655 -12 104 -3 418 15 543 10 67 22
122 27 122 5 0 6 14 2 30 -4 19 -2 37 6 46 9 12 78 261 93 339 7 34 25 75 34
75 4 0 14 17 21 38 16 43 64 154 86 195 8 16 15 34 15 41 0 7 11 25 25 40 13
14 41 60 61 101 19 42 46 88 58 103 12 15 48 65 79 112 30 47 67 96 81 109 14
14 26 28 26 32 0 5 10 19 23 31 12 13 42 48 67 77 25 30 56 63 69 75 58 51 74
66 69 66 -6 0 146 154 188 190 16 14 45 37 63 50 80 57 111 87 111 106 0 18
-4 18 -19 1z"/>
<path d="M4840 8055 c-14 -7 -52 -50 -85 -95 -33 -46 -81 -111 -107 -146 -26
-35 -45 -64 -43 -64 2 0 -44 -95 -101 -211 -57 -115 -105 -219 -107 -230 -1
-15 7 -24 35 -33 21 -8 40 -11 43 -8 3 3 5 0 5 -6 0 -7 9 -12 20 -12 11 0 20
-7 20 -16 0 -8 -5 -12 -10 -9 -6 4 -36 9 -68 12 l-57 5 -22 -39 c-27 -49 -82
-191 -85 -223 -3 -20 2 -25 32 -31 19 -4 45 -10 58 -14 15 -5 22 -3 22 5 0 9
4 9 13 2 6 -5 37 -13 67 -17 30 -3 63 -8 72 -11 23 -7 38 31 38 91 0 24 5 47
10 50 6 3 10 18 10 33 0 33 24 147 38 182 5 14 17 68 27 120 9 52 20 106 25
120 4 14 18 59 30 100 53 175 75 240 112 328 21 52 38 102 36 112 -3 16 -6 17
-28 5z"/>
<path d="M5210 8047 c0 -6 15 -56 34 -111 51 -150 110 -390 136 -556 15 -91
38 -153 54 -143 6 4 5 -1 -3 -10 -14 -17 -11 -74 11 -205 9 -53 14 -65 38 -77
26 -13 107 -14 190 -2 14 2 31 5 38 5 6 1 12 8 12 16 0 8 6 16 13 19 16 5 -59
245 -85 269 -11 10 -18 30 -18 52 0 61 -191 468 -274 586 -18 25 -45 66 -60
92 -26 45 -86 90 -86 65z"/>
<path d="M5360 8045 c0 -3 19 -36 41 -73 128 -208 187 -320 259 -497 72 -175
68 -168 92 -161 13 3 53 12 91 18 54 10 67 16 67 30 0 33 -27 84 -95 183 -36
53 -69 104 -72 113 -6 15 -28 46 -95 127 -13 16 -47 52 -75 81 -29 29 -53 57
-53 62 0 5 -10 17 -22 25 -13 9 -43 34 -68 57 -39 35 -70 51 -70 35z"/>
<path d="M6020 8010 c0 -5 7 -10 15 -10 8 0 15 5 15 10 0 6 -7 10 -15 10 -8 0
-15 -4 -15 -10z"/>
<path d="M6370 8001 c0 -6 4 -13 10 -16 6 -3 7 1 4 9 -7 18 -14 21 -14 7z"/>
<path d="M3811 7834 c0 -11 3 -14 6 -6 3 7 2 16 -1 19 -3 4 -6 -2 -5 -13z"/>
<path d="M6245 7800 c3 -5 8 -10 11 -10 2 0 4 5 4 10 0 6 -5 10 -11 10 -5 0
-7 -4 -4 -10z"/>
<path d="M6317 7763 c-3 -5 5 -8 18 -8 13 0 21 3 18 8 -2 4 -10 7 -18 7 -8 0
-16 -3 -18 -7z"/>
<path d="M6653 7762 l-22 -7 22 -11 c19 -9 23 -7 24 8 1 10 1 18 0 17 -1 -1
-12 -4 -24 -7z"/>
<path d="M6365 7681 c3 -6 -3 -14 -12 -20 -16 -9 -16 -10 -1 -11 9 0 29 -20
45 -45 15 -24 60 -91 99 -147 84 -123 193 -325 249 -463 40 -99 41 -100 77
-103 20 -2 52 4 72 12 26 11 36 12 36 3 -1 -21 -24 -44 -42 -41 -10 1 -18 -2
-18 -7 0 -5 -6 -9 -12 -9 -41 -1 -41 -15 1 -148 23 -72 49 -138 57 -147 17
-17 77 -12 102 8 6 5 12 6 12 3 0 -4 8 0 17 9 15 16 14 24 -16 119 -18 55 -45
128 -61 161 -16 33 -49 105 -75 160 -38 83 -194 337 -216 355 -4 3 -16 23 -28
46 -21 40 -150 174 -181 187 -11 5 -12 8 -2 13 21 10 2 24 -34 24 -27 0 -37 5
-46 25 -6 14 -15 25 -20 25 -5 0 -7 -4 -3 -9z"/>
<path d="M6780 7591 c0 -6 4 -13 10 -16 6 -3 7 1 4 9 -7 18 -14 21 -14 7z"/>
<path d="M5873 7305 c-18 -12 -53 -26 -78 -30 -46 -6 -46 -7 -40 -38 9 -39 74
-236 86 -259 8 -15 12 -15 58 2 27 11 59 21 72 23 13 2 37 9 52 15 16 7 33 12
38 12 17 0 8 26 -59 160 -38 77 -73 136 -82 137 -8 1 -30 -9 -47 -22z"/>
<path d="M7153 7193 c-18 -6 -16 -23 1 -23 17 0 30 16 19 23 -5 2 -14 2 -20 0z"/>
<path d="M6320 7023 c-8 -2 -29 -11 -47 -19 -17 -8 -38 -11 -47 -8 -9 3 -22 4
-30 1 -16 -6 -17 2 36 -182 13 -44 30 -90 39 -102 l15 -22 66 24 c49 18 68 21
72 12 2 -7 5 -5 5 5 1 9 9 21 18 27 16 8 15 15 -11 78 -16 37 -37 90 -47 116
-18 49 -36 78 -48 76 -3 0 -13 -3 -21 -6z"/>
<path d="M7266 6981 c-4 -7 -5 -15 -2 -18 9 -9 19 4 14 18 -4 11 -6 11 -12 0z"/>
<path d="M3606 6908 c-59 -127 -66 -146 -66 -162 0 -18 36 -35 90 -42 19 -2
51 -9 70 -14 52 -15 59 -13 66 18 10 43 36 135 44 157 16 39 30 88 30 103 0
12 -3 12 -15 2 -12 -10 -28 -10 -72 -1 -107 21 -110 20 -147 -61z"/>
<path d="M6021 6959 c-25 -11 -69 -21 -99 -24 -29 -2 -57 -6 -60 -10 -10 -9
46 -267 60 -281 10 -8 34 -9 88 -3 128 15 134 15 137 -1 6 -32 -15 -42 -107
-53 -62 -7 -93 -14 -97 -24 -3 -8 4 -62 15 -121 12 -59 24 -126 27 -150 l7
-42 91 6 c78 5 114 8 159 13 4 1 15 12 23 25 15 22 14 31 -11 123 -25 91 -31
117 -33 150 -1 7 -17 29 -36 50 -31 33 -40 63 -13 47 21 -13 -13 123 -69 274
-9 23 -21 42 -27 41 -6 0 -31 -9 -55 -20z"/>
<path d="M3917 6919 c-19 -29 -87 -217 -87 -240 0 -11 19 -21 61 -33 33 -9 64
-14 68 -12 4 3 32 -4 61 -15 67 -25 75 -19 95 76 23 112 43 199 51 219 6 16 4
18 -12 12 -37 -16 -95 -13 -191 9 -26 6 -34 3 -46 -16z"/>
<path d="M6670 6744 c-28 -16 -53 -23 -67 -19 -30 7 -30 -4 7 -140 17 -60 30
-119 30 -130 1 -46 12 -49 110 -24 51 13 94 29 97 35 2 6 -12 54 -32 105 -21
52 -46 118 -57 147 -11 28 -25 52 -31 51 -7 0 -32 -12 -57 -25z"/>
<path d="M3262 6728 c-39 -64 -108 -263 -94 -271 4 -3 21 -7 37 -11 17 -4 53
-19 82 -34 34 -17 56 -23 62 -17 9 11 81 262 81 287 0 8 -23 21 -57 32 -32 9
-65 24 -74 32 -15 14 -19 12 -37 -18z"/>
<path d="M6390 6669 c-36 -10 -73 -16 -82 -13 -23 7 -23 10 6 -133 30 -143 53
-208 70 -193 7 5 30 12 52 15 52 8 122 34 127 49 5 13 -34 177 -59 247 -20 55
-21 56 -114 28z"/>
<path d="M7380 6680 c0 -5 5 -10 10 -10 6 0 10 5 10 10 0 6 -4 10 -10 10 -5 0
-10 -4 -10 -10z"/>
<path d="M3506 6635 c-13 -14 -76 -217 -76 -246 0 -10 16 -20 43 -28 23 -7 47
-16 52 -21 12 -9 58 -20 108 -26 25 -3 37 -1 38 8 5 65 11 97 28 173 27 112
27 115 -7 115 -16 0 -61 9 -101 19 -59 16 -74 17 -85 6z"/>
<path d="M3813 6578 c-6 -7 -28 -71 -49 -141 -33 -112 -36 -129 -23 -142 14
-14 76 -29 160 -39 20 -2 51 -12 69 -21 42 -22 49 -13 56 60 1 17 12 79 24
138 12 59 20 110 18 113 -3 2 -36 8 -74 13 -38 6 -78 12 -89 15 -67 16 -82 17
-92 4z"/>
<path d="M7014 6515 c-27 -19 -55 -33 -61 -30 -16 6 -17 20 13 -136 34 -182
62 -273 77 -261 7 6 28 12 47 14 53 5 51 -23 -5 -56 -25 -15 -45 -32 -46 -39
-1 -19 2 -93 10 -214 4 -61 4 -142 0 -180 -4 -37 -10 -114 -13 -170 -7 -106
-21 -231 -32 -280 -27 -123 -78 -316 -105 -395 -34 -103 -132 -307 -190 -398
-72 -112 -190 -284 -235 -340 -60 -75 -186 -200 -195 -194 -5 3 -9 -6 -9 -19
0 -14 -7 -28 -17 -31 -12 -5 -13 -10 -5 -18 8 -8 18 -7 36 6 15 9 26 21 26 26
0 5 6 7 13 5 6 -3 24 3 39 13 36 24 153 128 197 175 20 22 41 35 49 32 10 -3
12 0 8 10 -6 18 28 81 49 89 8 3 15 12 15 20 0 8 4 16 8 18 5 2 23 30 42 63
18 33 64 105 102 161 37 56 68 105 68 111 0 5 15 26 34 46 18 20 29 37 24 37
-5 0 9 35 31 78 59 115 107 238 126 325 9 42 21 77 27 77 5 0 7 4 3 9 -3 5 3
47 14 93 10 46 21 112 25 148 3 36 8 76 11 89 9 50 19 168 18 231 0 38 4 68
11 72 7 5 7 8 0 8 -7 0 -11 42 -11 123 -1 80 -7 144 -18 187 -10 36 -21 106
-25 155 -4 50 -13 107 -20 128 -6 22 -9 45 -6 53 3 8 -1 25 -9 38 -8 12 -21
43 -29 68 -7 25 -20 55 -28 67 -15 21 -15 21 -64 -14z"/>
<path d="M2615 6510 c-3 -5 -1 -10 4 -10 6 0 11 5 11 10 0 6 -2 10 -4 10 -3 0
-8 -4 -11 -10z"/>
<path d="M7430 6508 c0 -9 5 -20 10 -23 13 -8 13 5 0 25 -8 13 -10 13 -10 -2z"/>
<path d="M6796 6390 c-27 -11 -51 -19 -55 -18 -11 2 -61 -22 -61 -29 0 -5 4
-24 10 -43 12 -44 17 -75 32 -180 6 -47 17 -90 25 -96 10 -9 33 -6 93 11 44
12 80 20 81 16 0 -3 4 3 8 13 8 20 1 55 -30 168 -11 36 -19 74 -19 85 0 10 -8
35 -18 55 l-17 37 -49 -19z"/>
<path d="M7452 6380 c0 -14 2 -19 5 -12 2 6 2 18 0 25 -3 6 -5 1 -5 -13z"/>
<path d="M3133 6353 c-12 -30 -53 -231 -53 -265 0 -4 17 -10 38 -13 20 -3 65
-13 100 -21 35 -8 67 -12 73 -9 5 4 9 23 9 43 0 20 7 75 15 122 21 119 20 144
-5 137 -11 -3 -22 -1 -25 4 -3 4 -11 6 -19 3 -7 -3 -34 4 -60 16 -26 11 -50
20 -52 20 -3 0 -12 -17 -21 -37z"/>
<path d="M6545 6309 c-22 -10 -68 -26 -103 -36 l-63 -18 5 -40 c2 -22 7 -65
11 -95 3 -30 11 -83 17 -118 l11 -63 71 6 c79 7 136 12 150 14 17 2 -14 223
-46 327 l-13 41 -40 -18z"/>
<path d="M3397 6248 c-17 -55 -22 -81 -32 -157 -4 -25 -9 -53 -11 -62 -6 -20
4 -24 119 -48 51 -11 99 -22 108 -26 13 -5 17 10 28 87 15 109 21 156 24 181
2 20 -41 39 -128 57 -27 5 -59 12 -70 15 -18 5 -23 -1 -38 -47z"/>
<path d="M7495 6259 c-4 -6 -5 -12 -2 -15 2 -3 7 2 10 11 7 17 1 20 -8 4z"/>
<path d="M3716 6185 c-23 -53 -34 -102 -40 -167 -7 -70 11 -96 69 -103 22 -3
65 -9 95 -15 30 -5 72 -11 93 -14 l37 -5 0 45 c0 25 5 88 12 140 6 52 9 96 7
98 -3 3 -27 8 -54 12 -61 8 -164 29 -187 39 -13 5 -21 -2 -32 -30z"/>
<path d="M7493 6185 c0 -8 4 -15 9 -15 4 0 8 -8 8 -17 0 -13 3 -14 11 -6 8 8
6 17 -8 32 -15 16 -20 18 -20 6z"/>
<path d="M7514 6103 c5 -17 3 -29 -6 -34 -10 -7 -10 -11 1 -21 9 -8 11 -9 7
-1 -3 6 -2 14 4 18 14 8 13 65 -1 65 -7 0 -9 -10 -5 -27z"/>
<path d="M7600 6031 c0 -5 5 -13 10 -16 6 -3 10 -2 10 4 0 5 -4 13 -10 16 -5
3 -10 2 -10 -4z"/>
<path d="M3072 6003 c-13 -26 -21 -74 -28 -172 -6 -84 -5 -89 20 -117 14 -16
26 -23 26 -15 0 11 5 10 25 -3 13 -9 31 -16 40 -16 8 0 15 -4 15 -9 0 -5 9
-11 20 -14 11 -3 20 -13 20 -22 0 -15 -6 -16 -37 -10 -103 19 -124 21 -129 13
-8 -12 5 -169 18 -228 5 -25 12 -61 14 -80 3 -19 12 -57 20 -85 9 -27 18 -72
21 -100 2 -27 15 -81 28 -120 13 -38 33 -101 44 -140 35 -118 228 -491 318
-612 66 -89 103 -124 184 -179 37 -24 74 -55 83 -69 9 -14 22 -25 29 -25 6 0
23 -17 37 -37 26 -39 60 -77 60 -67 0 3 14 -4 30 -16 43 -31 113 -127 106
-145 -3 -8 -2 -14 3 -12 11 3 101 -62 101 -72 0 -5 15 -11 34 -14 18 -3 52
-14 74 -25 39 -19 52 -19 52 0 0 5 -4 6 -10 3 -5 -3 -10 2 -10 13 0 10 -13 34
-30 52 -16 18 -30 37 -30 41 0 4 -9 9 -20 12 -13 3 -18 11 -14 20 3 8 -2 17
-10 20 -9 4 -16 16 -16 27 0 12 -4 18 -10 15 -12 -8 -69 55 -70 76 0 10 -7 16
-17 15 -11 0 -17 6 -17 17 1 9 -4 17 -12 17 -8 0 -11 6 -7 17 4 9 2 14 -3 10
-5 -3 -25 19 -44 49 -19 30 -39 54 -43 54 -5 0 -5 9 -2 20 7 24 -12 53 -28 43
-6 -3 -7 -1 -3 5 4 6 0 33 -9 58 -9 26 -14 53 -11 60 3 7 2 14 -2 16 -51 22
-184 401 -243 693 -51 250 -48 224 -56 388 -3 76 -9 140 -13 142 -4 2 -46 11
-93 19 -47 9 -98 18 -113 22 l-27 7 7 -114 c10 -166 10 -170 50 -349 43 -195
73 -290 122 -397 20 -43 55 -121 78 -173 61 -141 100 -209 161 -279 54 -61 68
-91 42 -91 -17 0 -52 25 -114 84 -44 41 -66 75 -119 185 -36 75 -88 181 -114
236 -48 97 -81 196 -114 340 -9 39 -27 117 -41 175 -13 58 -27 148 -30 200 -7
131 -15 207 -26 259 -7 30 -6 47 1 57 7 7 13 55 15 107 2 52 6 115 10 139 l7
45 -61 12 c-33 7 -73 18 -88 26 -36 19 -40 19 -51 -2z"/>
<path d="M6915 6004 c-18 -14 -76 -33 -120 -41 -47 -8 -47 -8 -41 -106 11
-178 18 -226 32 -231 8 -3 14 -10 14 -17 0 -6 -6 -9 -14 -6 -18 7 -25 -20 -30
-128 -8 -134 -62 -470 -101 -618 -52 -201 -101 -357 -110 -357 -6 0 -16 -13
-23 -30 -8 -16 -18 -30 -24 -30 -6 0 -27 -14 -48 -30 -36 -28 -70 -79 -173
-252 -43 -74 -135 -185 -150 -180 -4 1 -6 -2 -3 -7 7 -10 -69 -111 -84 -111
-5 0 -11 -9 -15 -19 -3 -11 -43 -58 -88 -105 -89 -92 -137 -146 -137 -152 0
-2 8 0 18 5 9 5 40 17 67 26 77 26 109 42 138 69 17 16 34 23 49 20 13 -2 17
-2 11 2 -7 3 -13 10 -13 14 0 21 86 130 102 130 5 0 27 18 48 40 22 23 40 39
40 36 0 -2 25 20 55 50 30 30 55 58 55 62 0 4 14 18 30 32 17 14 30 28 30 33
0 4 9 17 20 29 11 12 39 52 61 90 23 38 46 71 50 74 5 3 16 21 24 39 7 19 18
40 24 47 6 7 24 29 41 49 16 20 30 41 30 47 0 6 12 25 26 42 15 17 24 33 21
37 -3 3 3 22 14 41 10 20 19 42 19 48 0 6 18 59 40 117 45 120 90 275 90 309
0 13 4 28 9 33 5 6 11 30 14 55 3 25 13 99 21 165 25 179 33 474 17 575 -5 30
-7 59 -4 65 2 6 0 21 -4 32 -7 19 -10 20 -28 7z m-33 -386 c-17 -17 -69 -19
-75 -4 -4 11 5 14 40 14 31 0 42 -3 35 -10z"/>
<path d="M7505 5991 c-3 -5 -1 -12 4 -15 5 -3 11 1 15 9 6 16 -9 21 -19 6z"/>
<path d="M3349 5913 c-14 -16 -24 -196 -15 -255 l7 -45 77 -17 c138 -31 152
-33 153 -27 1 3 3 58 6 121 2 63 5 133 6 155 l2 40 -72 9 c-40 5 -73 12 -73
16 0 5 -9 6 -20 3 -11 -3 -20 -1 -20 4 0 13 -40 11 -51 -4z"/>
<path d="M7510 5870 c0 -5 -8 -10 -17 -10 -17 -1 -17 -1 0 -11 9 -5 22 -7 27
-4 13 8 13 35 0 35 -5 0 -10 -4 -10 -10z"/>
<path d="M7500 5625 c0 -8 4 -15 10 -15 5 0 7 7 4 15 -4 8 -8 15 -10 15 -2 0
-4 -7 -4 -15z"/>
<path d="M7510 5254 c0 -8 5 -12 10 -9 6 4 8 11 5 16 -9 14 -15 11 -15 -7z"/>
<path d="M7395 5050 c3 -5 11 -10 16 -10 6 0 7 5 4 10 -3 6 -11 10 -16 10 -6
0 -7 -4 -4 -10z"/>
<path d="M3030 4339 c0 -5 5 -7 10 -4 6 3 10 8 10 11 0 2 -4 4 -10 4 -5 0 -10
-5 -10 -11z"/>
<path d="M3215 4280 c3 -5 11 -10 16 -10 6 0 7 5 4 10 -3 6 -11 10 -16 10 -6
0 -7 -4 -4 -10z"/>
<path d="M3240 4250 c0 -5 7 -10 16 -10 8 0 12 5 9 10 -3 6 -10 10 -16 10 -5
0 -9 -4 -9 -10z"/>
<path d="M6735 4190 c3 -5 8 -10 11 -10 2 0 4 5 4 10 0 6 -5 10 -11 10 -5 0
-7 -4 -4 -10z"/>
<path d="M6803 4190 c-13 -5 -23 -11 -23 -14 0 -7 40 6 46 15 6 10 6 10 -23
-1z"/>
<path d="M6680 4111 c0 -5 5 -13 10 -16 6 -3 10 -2 10 4 0 5 -4 13 -10 16 -5
3 -10 2 -10 -4z"/>
<path d="M4134 2981 c20 -22 26 -25 26 -13 0 4 -10 13 -22 21 -23 14 -23 14
-4 -8z"/>
<path d="M3618 2573 c7 -3 16 -2 19 1 4 3 -2 6 -13 5 -11 0 -14 -3 -6 -6z"/>
<path d="M3175 2490 c3 -5 8 -10 11 -10 2 0 4 5 4 10 0 6 -5 10 -11 10 -5 0
-7 -4 -4 -10z"/>
<path d="M3185 2440 c3 -5 11 -10 16 -10 6 0 7 5 4 10 -3 6 -11 10 -16 10 -6
0 -7 -4 -4 -10z"/>
<path d="M3460 2324 c0 -8 5 -12 10 -9 6 3 10 10 10 16 0 5 -4 9 -10 9 -5 0
-10 -7 -10 -16z"/>
<path d="M5875 3010 c3 -5 11 -10 16 -10 6 0 7 5 4 10 -3 6 -11 10 -16 10 -6
0 -7 -4 -4 -10z"/>
<path d="M5920 2989 c0 -5 5 -7 10 -4 6 3 10 8 10 11 0 2 -4 4 -10 4 -5 0 -10
-5 -10 -11z"/>
<path d="M6245 2950 c3 -5 8 -10 11 -10 2 0 4 5 4 10 0 6 -5 10 -11 10 -5 0
-7 -4 -4 -10z"/>
<path d="M6273 2938 c-2 -16 1 -18 10 -9 7 7 8 14 1 21 -6 6 -10 2 -11 -12z"/>
<path d="M6480 2930 c0 -5 5 -10 11 -10 5 0 7 5 4 10 -3 6 -8 10 -11 10 -2 0
-4 -4 -4 -10z"/>
<path d="M6310 2825 c0 -8 5 -15 10 -15 6 0 10 7 10 15 0 8 -4 15 -10 15 -5 0
-10 -7 -10 -15z"/>
<path d="M6348 2796 c-10 -7 -18 -16 -18 -19 0 -12 28 4 34 19 6 17 6 17 -16
0z"/>
<path d="M6360 2690 c0 -5 5 -10 11 -10 5 0 7 5 4 10 -3 6 -8 10 -11 10 -2 0
-4 -4 -4 -10z"/>
<path d="M6798 2593 c7 -3 16 -2 19 1 4 3 -2 6 -13 5 -11 0 -14 -3 -6 -6z"/>
<path d="M6846 2575 c-3 -8 -1 -15 3 -15 5 0 11 7 15 15 3 8 1 15 -3 15 -5 0
-11 -7 -15 -15z"/>
<path d="M6490 2559 c0 -5 5 -7 10 -4 6 3 10 8 10 11 0 2 -4 4 -10 4 -5 0 -10
-5 -10 -11z"/>
<path d="M6880 2566 c0 -2 7 -7 16 -10 8 -3 12 -2 9 4 -6 10 -25 14 -25 6z"/>
<path d="M6530 2491 c-6 -12 -6 -22 -1 -26 6 -3 15 3 21 14 6 12 6 22 1 26 -6
3 -15 -3 -21 -14z"/>
<path d="M6870 2498 c0 -5 7 -8 16 -8 11 0 15 -6 11 -19 -3 -14 0 -17 15 -13
12 3 16 7 9 12 -7 3 -9 13 -6 21 4 10 -2 14 -20 14 -14 0 -25 -3 -25 -7z"/>
<path d="M6636 2341 c-3 -5 1 -11 9 -14 9 -4 12 -1 8 9 -6 16 -10 17 -17 5z"/>
<path d="M6640 2302 c0 -6 9 -12 20 -15 11 -3 20 -3 20 -1 0 2 -9 8 -20 14
-11 6 -20 7 -20 2z"/>
<path d="M4870 2196 c0 -2 7 -7 16 -10 8 -3 12 -2 9 4 -6 10 -25 14 -25 6z"/>
<path d="M4827 2171 c-3 -14 0 -21 9 -21 16 0 18 9 5 28 -6 10 -10 9 -14 -7z"/>
<path d="M4790 2125 c0 -8 4 -15 10 -15 5 0 7 7 4 15 -4 8 -8 15 -10 15 -2 0
-4 -7 -4 -15z"/>
<path d="M4731 2108 c-1 -10 8 -22 18 -27 15 -9 20 -7 24 9 6 22 -7 27 -19 8
-5 -8 -10 -6 -15 8 -6 16 -8 16 -8 2z"/>
<path d="M4726 2051 c10 -10 22 -16 27 -14 10 6 -18 33 -34 33 -8 0 -5 -7 7
-19z"/>
<path d="M4700 2036 c0 -2 7 -9 15 -16 9 -7 15 -8 15 -2 0 5 -7 12 -15 16 -8
3 -15 4 -15 2z"/>
<path d="M4107 2816 c-4 -10 -1 -13 8 -9 8 3 12 9 9 14 -7 12 -11 11 -17 -5z"/>
<path d="M3967 2579 c7 -7 15 -10 18 -7 3 3 -2 9 -12 12 -14 6 -15 5 -6 -5z"/>
<path d="M3862 2464 c-7 -8 -8 -14 -3 -14 10 0 25 19 20 25 -2 1 -10 -3 -17
-11z"/>
<path d="M4290 2660 c0 -5 5 -10 11 -10 5 0 7 5 4 10 -3 6 -8 10 -11 10 -2 0
-4 -4 -4 -10z"/>
<path d="M4156 2362 c-3 -6 -1 -14 5 -17 14 -9 20 -2 10 14 -6 8 -11 9 -15 3z"/>
<path d="M5085 2110 c3 -5 10 -10 16 -10 5 0 9 5 9 10 0 6 -7 10 -16 10 -8 0
-12 -4 -9 -10z"/>
<path d="M5056 2005 c-3 -8 -1 -15 3 -15 5 0 11 7 15 15 3 8 1 15 -3 15 -5 0
-11 -7 -15 -15z"/>
<path d="M5036 1948 c3 -4 9 -8 15 -8 5 0 9 4 9 8 0 5 -7 9 -15 9 -8 0 -12 -4
-9 -9z"/>
<path d="M5086 1931 c-3 -4 6 -13 20 -20 36 -16 40 -14 14 9 -26 23 -27 23
-34 11z"/>
<path d="M5013 1923 c-7 -3 -13 -9 -13 -14 0 -6 5 -7 10 -4 6 3 13 0 16 -9 3
-8 12 -12 20 -9 9 3 14 -1 14 -13 0 -17 1 -17 16 -2 21 21 8 41 -21 34 -15 -4
-25 -1 -27 7 -2 8 -9 12 -15 10z"/>
<path d="M4956 1894 c-3 -8 -2 -13 2 -10 5 3 16 -4 25 -15 19 -22 37 -25 37
-6 0 7 -13 20 -29 30 -26 15 -30 15 -35 1z"/>
<path d="M6298 2353 c-20 -5 -22 -12 -10 -31 6 -9 12 -6 20 13 6 14 11 24 9
24 -1 -1 -10 -3 -19 -6z"/>
<path d="M6310 2289 c0 -5 5 -7 10 -4 6 3 10 8 10 11 0 2 -4 4 -10 4 -5 0 -10
-5 -10 -11z"/>
</g>
</svg>
